<svg width="48" height="48" viewBox="0 0 48 48" fill="none" xmlns="http://www.w3.org/2000/svg">
<path d="M30 32H36C36.5667 32 37.042 31.808 37.426 31.424C37.81 31.04 38.0013 30.5653 38 30V18C38 17.4333 37.808 16.9587 37.424 16.576C37.04 16.1933 36.5653 16.0013 36 16H30C29.4333 16 28.9587 16.192 28.576 16.576C28.1933 16.96 28.0013 17.4347 28 18V30C28 30.5667 28.192 31.042 28.576 31.426C28.96 31.81 29.4347 32.0013 30 32ZM32 28V20H34V28H32ZM18 32H24C24.5667 32 25.042 31.808 25.426 31.424C25.81 31.04 26.0013 30.5653 26 30V18C26 17.4333 25.808 16.9587 25.424 16.576C25.04 16.1933 24.5653 16.0013 24 16H18C17.4333 16 16.9587 16.192 16.576 16.576C16.1933 16.96 16.0013 17.4347 16 18V30C16 30.5667 16.192 31.042 16.576 31.426C16.96 31.81 17.4347 32.0013 18 32ZM20 28V20H22V28H20ZM14 30V18C14 17.4333 13.808 16.9587 13.424 16.576C13.04 16.1933 12.5653 16.0013 12 16C11.4347 15.9987 10.96 16.1907 10.576 16.576C10.192 16.9613 10 17.436 10 18V30C10 30.5667 10.192 31.042 10.576 31.426C10.96 31.81 11.4347 32.0013 12 32C12.5653 31.9987 13.0407 31.8067 13.426 31.424C13.8113 31.0413 14.0027 30.5667 14 30ZM4 36V12C4 10.9 4.392 9.95867 5.176 9.176C5.96 8.39333 6.90133 8.00133 8 8H40C41.1 8 42.042 8.392 42.826 9.176C43.61 9.96 44.0013 10.9013 44 12V36C44 37.1 43.6087 38.042 42.826 38.826C42.0433 39.61 41.1013 40.0013 40 40H8C6.9 40 5.95867 39.6087 5.176 38.826C4.39333 38.0433 4.00133 37.1013 4 36Z" fill="url(#paint0_linear_444_2471)"/>
<defs>
<linearGradient id="paint0_linear_444_2471" x1="-0.62585" y1="4.86658" x2="38.6369" y2="51.5286" gradientUnits="userSpaceOnUse">
<stop stop-color="#D1A843"/>
<stop offset="0.25" stop-color="#C5C5C5"/>
<stop offset="0.5" stop-color="#3674B5"/>
</linearGradient>
</defs>
</svg>
