<svg width="48" height="48" viewBox="0 0 48 48" fill="none" xmlns="http://www.w3.org/2000/svg">
<path d="M10 32V22C10 21.4333 10.192 20.9587 10.576 20.576C10.96 20.1933 11.4347 20.0013 12 20C12.5653 19.9987 13.0407 20.1907 13.426 20.576C13.8113 20.9613 14.0027 21.436 14 22V32C14 32.5667 13.808 33.042 13.424 33.426C13.04 33.81 12.5653 34.0013 12 34C11.4347 33.9987 10.96 33.8067 10.576 33.424C10.192 33.0413 10 32.5667 10 32ZM22 32V22C22 21.4333 22.192 20.9587 22.576 20.576C22.96 20.1933 23.4347 20.0013 24 20C24.5653 19.9987 25.0407 20.1907 25.426 20.576C25.8113 20.9613 26.0027 21.436 26 22V32C26 32.5667 25.808 33.042 25.424 33.426C25.04 33.81 24.5653 34.0013 24 34C23.4347 33.9987 22.96 33.8067 22.576 33.424C22.192 33.0413 22 32.5667 22 32ZM6.00001 42C5.43334 42 4.95867 41.808 4.57601 41.424C4.19334 41.04 4.00134 40.5653 4.00001 40C3.99867 39.4347 4.19067 38.96 4.57601 38.576C4.96134 38.192 5.43601 38 6.00001 38H42C42.5667 38 43.042 38.192 43.426 38.576C43.81 38.96 44.0013 39.4347 44 40C43.9987 40.5653 43.8067 41.0407 43.424 41.426C43.0413 41.8113 42.5667 42.0027 42 42H6.00001ZM34 32V22C34 21.4333 34.192 20.9587 34.576 20.576C34.96 20.1933 35.4347 20.0013 36 20C36.5653 19.9987 37.0407 20.1907 37.426 20.576C37.8113 20.9613 38.0027 21.436 38 22V32C38 32.5667 37.808 33.042 37.424 33.426C37.04 33.81 36.5653 34.0013 36 34C35.4347 33.9987 34.96 33.8067 34.576 33.424C34.192 33.0413 34 32.5667 34 32ZM42 16H5.80001C5.30001 16 4.87467 15.8253 4.52401 15.476C4.17334 15.1267 3.99867 14.7013 4.00001 14.2V13.1C4.00001 12.7333 4.09201 12.4167 4.27601 12.15C4.46001 11.8833 4.70134 11.6667 5.00001 11.5L22.2 2.9C22.7667 2.63333 23.3667 2.5 24 2.5C24.6333 2.5 25.2333 2.63333 25.8 2.9L42.9 11.45C43.2667 11.6167 43.542 11.8667 43.726 12.2C43.91 12.5333 44.0013 12.8833 44 13.25V14C44 14.5667 43.8087 15.042 43.426 15.426C43.0433 15.81 42.568 16.0013 42 16Z" fill="url(#paint0_linear_444_2454)"/>
<defs>
<linearGradient id="paint0_linear_444_2454" x1="-0.625852" y1="-1.36781" x2="48.528" y2="45.9574" gradientUnits="userSpaceOnUse">
<stop stop-color="#D1A843"/>
<stop offset="0.25" stop-color="#C5C5C5"/>
<stop offset="0.5" stop-color="#3674B5"/>
</linearGradient>
</defs>
</svg>
