<svg width="48" height="48" viewBox="0 0 48 48" fill="none" xmlns="http://www.w3.org/2000/svg">
<path d="M2 24.05C2 23.3833 2.15 22.7667 2.45 22.2C2.75 21.6333 3.16667 21.1667 3.7 20.8L13.7 13.65C14.0667 13.3833 14.442 13.1913 14.826 13.074C15.21 12.9567 15.6013 12.8987 16 12.9C16.3987 12.9013 16.7907 12.96 17.176 13.076C17.5613 13.192 17.936 13.3833 18.3 13.65L28.3 20.8C28.8333 21.1667 29.25 21.6333 29.55 22.2C29.85 22.7667 30 23.3833 30 24.05V38C30 39.1 29.6087 40.042 28.826 40.826C28.0433 41.61 27.1013 42.0013 26 42H24C22.9 42 21.9587 41.6087 21.176 40.826C20.3933 40.0433 20.0013 39.1013 20 38V33C20 32.1667 19.7087 31.4587 19.126 30.876C18.5433 30.2933 17.8347 30.0013 17 30H15C14.1667 30 13.4587 30.292 12.876 30.876C12.2933 31.46 12.0013 32.168 12 33V38C12 39.1 11.6087 40.042 10.826 40.826C10.0433 41.61 9.10133 42.0013 8 42H6C4.9 42 3.95867 41.6087 3.176 40.826C2.39333 40.0433 2.00133 39.1013 2 38V24.05ZM46 10V38C46 39.1 45.6087 40.042 44.826 40.826C44.0433 41.61 43.1013 42.0013 42 42H36C35.4333 42 34.9587 41.808 34.576 41.424C34.1933 41.04 34.0013 40.5653 34 40V22.05C34 21.3833 33.858 20.7667 33.574 20.2C33.29 19.6333 32.882 19.1667 32.35 18.8L21.9 11.3C21.4667 10.9667 21.1167 10.5667 20.85 10.1C20.5833 9.63333 20.45 9.16667 20.45 8.7C20.45 7.86667 20.7167 7.20867 21.25 6.726C21.7833 6.24333 22.5 6.00133 23.4 6H42C43.1 6 44.042 6.392 44.826 7.176C45.61 7.96 46.0013 8.90133 46 10ZM35 18H37C37.2667 18 37.5 17.9 37.7 17.7C37.9 17.5 38 17.2667 38 17V15C38 14.7333 37.9 14.5 37.7 14.3C37.5 14.1 37.2667 14 37 14H35C34.7333 14 34.5 14.1 34.3 14.3C34.1 14.5 34 14.7333 34 15V17C34 17.2667 34.1 17.5 34.3 17.7C34.5 17.9 34.7333 18 35 18ZM35 26H37C37.2667 26 37.5 25.9 37.7 25.7C37.9 25.5 38 25.2667 38 25V23C38 22.7333 37.9 22.5 37.7 22.3C37.5 22.1 37.2667 22 37 22H35C34.7333 22 34.5 22.1 34.3 22.3C34.1 22.5 34 22.7333 34 23V25C34 25.2667 34.1 25.5 34.3 25.7C34.5 25.9 34.7333 26 35 26ZM35 34H37C37.2667 34 37.5 33.9 37.7 33.7C37.9 33.5 38 33.2667 38 33V31C38 30.7333 37.9 30.5 37.7 30.3C37.5 30.1 37.2667 30 37 30H35C34.7333 30 34.5 30.1 34.3 30.3C34.1 30.5 34 30.7333 34 31V33C34 33.2667 34.1 33.5 34.3 33.7C34.5 33.9 34.7333 34 35 34Z" fill="url(#paint0_linear_444_2446)"/>
<defs>
<linearGradient id="paint0_linear_444_2446" x1="-3.08843" y1="2.47491" x2="41.2413" y2="53.988" gradientUnits="userSpaceOnUse">
<stop stop-color="#D1A843"/>
<stop offset="0.25" stop-color="#C5C5C5"/>
<stop offset="0.5" stop-color="#3674B5"/>
</linearGradient>
</defs>
</svg>
