<svg width="95" height="95" viewBox="0 0 95 95" fill="none" xmlns="http://www.w3.org/2000/svg">
<g filter="url(#filter0_d_589_1243)">
<rect x="7.5" y="6" width="80" height="80" rx="8" fill="url(#paint0_radial_589_1243)" fill-opacity="0.2" shape-rendering="crispEdges"/>
<path d="M52.0104 74.6564C52.5451 74.8023 53.1654 74.8635 53.8712 74.8402C54.5771 74.8168 55.1721 74.707 55.6562 74.5106L77.1667 66.4168C77.1667 64.7641 76.5833 63.3786 75.4167 62.2606C74.25 61.1425 72.8889 60.5835 71.3333 60.5835H51.3542C51.2083 60.5835 51.0382 60.5718 50.8437 60.5485C50.6493 60.5252 50.5035 60.4882 50.4062 60.4377L46.1042 58.9064C45.7153 58.7606 45.4479 58.5175 45.3021 58.1773C45.1562 57.837 45.1319 57.4724 45.2292 57.0835C45.3264 56.7432 45.5694 56.4759 45.9583 56.2814C46.3472 56.087 46.7361 56.0627 47.125 56.2085L50.4062 57.4481C50.6007 57.5453 50.7592 57.6066 50.8817 57.6318C51.0042 57.6571 51.186 57.6688 51.4271 57.6668H59.0833C60.0069 57.6668 60.8207 57.3509 61.5246 56.7189C62.2285 56.087 62.5814 55.2606 62.5833 54.2398C62.5833 53.5592 62.3762 52.903 61.9621 52.271C61.5479 51.6391 61.0015 51.2016 60.3229 50.9585L40.125 43.4481C39.7847 43.3509 39.4444 43.2653 39.1042 43.1914C38.7639 43.1175 38.4236 43.0816 38.0833 43.0835H33.4167V69.4064L52.0104 74.6564ZM15.9167 69.3335C15.9167 70.9377 16.4883 72.3114 17.6317 73.4548C18.775 74.5981 20.1478 75.1688 21.75 75.1668C23.3522 75.1649 24.726 74.5942 25.8712 73.4548C27.0165 72.3153 27.5872 70.9416 27.5833 69.3335V48.9168C27.5833 47.3127 27.0126 45.9399 25.8712 44.7985C24.7299 43.6571 23.3561 43.0854 21.75 43.0835C20.1439 43.0816 18.7711 43.6532 17.6317 44.7985C16.4922 45.9438 15.9205 47.3166 15.9167 48.9168V69.3335ZM59.6667 46.5835C58.9375 46.5835 58.221 46.4503 57.5171 46.1839C56.8132 45.9175 56.1686 45.516 55.5833 44.9793L47.5625 37.1043C46.0555 35.646 44.78 34.0302 43.7358 32.2568C42.6917 30.4835 42.1686 28.5507 42.1667 26.4585C42.1667 23.7849 43.1029 21.5128 44.9754 19.6423C46.8479 17.7717 49.12 16.8354 51.7917 16.8335C53.3472 16.8335 54.8055 17.1621 56.1667 17.8193C57.5278 18.4766 58.6944 19.3632 59.6667 20.4793C60.6389 19.3613 61.8055 18.4736 63.1667 17.8164C64.5278 17.1592 65.9861 16.8316 67.5417 16.8335C70.2153 16.8335 72.4883 17.7698 74.3608 19.6423C76.2333 21.5148 77.1686 23.7868 77.1667 26.4585C77.1667 28.5488 76.6562 30.4816 75.6354 32.2568C74.6146 34.0321 73.3507 35.6479 71.8437 37.1043L63.75 44.9793C63.1667 45.5141 62.523 45.9156 61.8192 46.1839C61.1153 46.4523 60.3978 46.5854 59.6667 46.5835Z" fill="url(#paint1_linear_589_1243)"/>
</g>
<defs>
<filter id="filter0_d_589_1243" x="0.602706" y="0.863717" width="93.7946" height="93.7946" filterUnits="userSpaceOnUse" color-interpolation-filters="sRGB">
<feFlood flood-opacity="0" result="BackgroundImageFix"/>
<feColorMatrix in="SourceAlpha" type="matrix" values="0 0 0 0 0 0 0 0 0 0 0 0 0 0 0 0 0 0 127 0" result="hardAlpha"/>
<feOffset dy="1.76101"/>
<feGaussianBlur stdDeviation="3.44865"/>
<feComposite in2="hardAlpha" operator="out"/>
<feColorMatrix type="matrix" values="0 0 0 0 0.211765 0 0 0 0 0.454902 0 0 0 0 0.709804 0 0 0 0.25 0"/>
<feBlend mode="normal" in2="BackgroundImageFix" result="effect1_dropShadow_589_1243"/>
<feBlend mode="normal" in="BackgroundImageFix" in2="effect1_dropShadow_589_1243" result="BackgroundImageFix"/>
<feBlend mode="normal" in="SourceGraphic" in2="BackgroundImageFix" result="shape"/>
</filter>
<radialGradient id="paint0_radial_589_1243" cx="0" cy="0" r="1" gradientUnits="userSpaceOnUse" gradientTransform="translate(21.5 11) rotate(52.8691) scale(87.8009)">
<stop stop-color="#EEF2FD"/>
<stop offset="1" stop-color="#EEF2FD" stop-opacity="0.5"/>
</radialGradient>
<linearGradient id="paint1_linear_589_1243" x1="8.83332" y1="11.1215" x2="81.4754" y2="83.6402" gradientUnits="userSpaceOnUse">
<stop stop-color="#D1A843"/>
<stop offset="0.25" stop-color="#C5C5C5"/>
<stop offset="0.5" stop-color="#3674B5"/>
</linearGradient>
</defs>
</svg>
