<svg width="95" height="95" viewBox="0 0 95 95" fill="none" xmlns="http://www.w3.org/2000/svg">
<g filter="url(#filter0_d_589_1248)">
<rect x="7.5" y="6" width="80" height="80" rx="8" fill="url(#paint0_radial_589_1248)" fill-opacity="0.2" shape-rendering="crispEdges"/>
<path d="M65.5 28.5002C63.8958 28.5002 62.5231 27.9295 61.3817 26.7881C60.2403 25.6467 59.6686 24.273 59.6667 22.6668C59.6647 21.0607 60.2364 19.688 61.3817 18.5485C62.527 17.4091 63.8997 16.8374 65.5 16.8335C67.1003 16.8296 68.474 17.4013 69.6213 18.5485C70.7685 19.6957 71.3392 21.0685 71.3334 22.6668C71.3275 24.2652 70.7568 25.6389 69.6213 26.7881C68.4857 27.9373 67.112 28.508 65.5 28.5002ZM62.5833 72.2502V51.8335C62.5833 49.8891 62.0846 48.1391 61.0871 46.5835C60.0896 45.028 58.814 43.8127 57.2604 42.9377L59.8125 35.4273C60.2014 34.212 60.9189 33.2398 61.965 32.5106C63.0111 31.7814 64.1895 31.4168 65.5 31.4168C66.8106 31.4168 67.9899 31.7814 69.0379 32.5106C70.086 33.2398 70.8025 34.212 71.1875 35.4273L77.3125 53.8023C77.6528 54.7745 77.5196 55.6621 76.9129 56.4652C76.3063 57.2682 75.5159 57.6688 74.5417 57.6668H71.3334V72.2502C71.3334 73.0766 71.0533 73.7698 70.4933 74.3298C69.9333 74.8898 69.2411 75.1688 68.4167 75.1668H65.5C64.6736 75.1668 63.9814 74.8868 63.4233 74.3268C62.8653 73.7668 62.5853 73.0746 62.5833 72.2502ZM49.4583 44.5418C48.2431 44.5418 47.2106 44.117 46.3608 43.2673C45.5111 42.4175 45.0853 41.3841 45.0833 40.1668C45.0814 38.9496 45.5072 37.9171 46.3608 37.0693C47.2145 36.2216 48.247 35.7957 49.4583 35.7918C50.6697 35.788 51.7032 36.2138 52.5588 37.0693C53.4143 37.9249 53.8392 38.9574 53.8333 40.1668C53.8275 41.3763 53.4027 42.4098 52.5588 43.2673C51.7149 44.1248 50.6814 44.5496 49.4583 44.5418ZM29.0417 28.5002C27.4375 28.5002 26.0647 27.9295 24.9233 26.7881C23.782 25.6467 23.2103 24.273 23.2083 22.6668C23.2064 21.0607 23.7781 19.688 24.9233 18.5485C26.0686 17.4091 27.4414 16.8374 29.0417 16.8335C30.642 16.8296 32.0157 17.4013 33.1629 18.5485C34.3102 19.6957 34.8808 21.0685 34.875 22.6668C34.8692 24.2652 34.2985 25.6389 33.1629 26.7881C32.0274 27.9373 30.6536 28.508 29.0417 28.5002ZM23.2083 72.2502V54.7502H21.75C20.9236 54.7502 20.2314 54.4702 19.6733 53.9102C19.1153 53.3502 18.8353 52.658 18.8333 51.8335V37.2502C18.8333 35.646 19.405 34.2732 20.5483 33.1318C21.6917 31.9905 23.0645 31.4188 24.6667 31.4168H33.4167C35.0208 31.4168 36.3946 31.9885 37.5379 33.1318C38.6813 34.2752 39.252 35.648 39.25 37.2502V51.8335C39.25 52.6599 38.97 53.3531 38.41 53.9131C37.85 54.4731 37.1578 54.7521 36.3333 54.7502H34.875V72.2502C34.875 73.0766 34.595 73.7698 34.035 74.3298C33.475 74.8898 32.7828 75.1688 31.9583 75.1668H26.125C25.2986 75.1668 24.6064 74.8868 24.0483 74.3268C23.4903 73.7668 23.2103 73.0746 23.2083 72.2502ZM45.0833 72.2502V63.5002C44.257 63.5002 43.5647 63.2202 43.0067 62.6602C42.4486 62.1002 42.1686 61.408 42.1667 60.5835V51.8335C42.1667 50.6182 42.5925 49.5857 43.4442 48.736C44.2958 47.8863 45.3283 47.4605 46.5417 47.4585H52.375C53.5903 47.4585 54.6238 47.8843 55.4754 48.736C56.3271 49.5877 56.752 50.6202 56.75 51.8335V60.5835C56.75 61.4099 56.47 62.1031 55.91 62.6631C55.35 63.2231 54.6578 63.5021 53.8333 63.5002V72.2502C53.8333 73.0766 53.5533 73.7698 52.9933 74.3298C52.4333 74.8898 51.7411 75.1688 50.9167 75.1668H48C47.1736 75.1668 46.4814 74.8868 45.9233 74.3268C45.3653 73.7668 45.0853 73.0746 45.0833 72.2502Z" fill="url(#paint1_linear_589_1248)"/>
</g>
<defs>
<filter id="filter0_d_589_1248" x="0.602706" y="0.863717" width="93.7946" height="93.7946" filterUnits="userSpaceOnUse" color-interpolation-filters="sRGB">
<feFlood flood-opacity="0" result="BackgroundImageFix"/>
<feColorMatrix in="SourceAlpha" type="matrix" values="0 0 0 0 0 0 0 0 0 0 0 0 0 0 0 0 0 0 127 0" result="hardAlpha"/>
<feOffset dy="1.76101"/>
<feGaussianBlur stdDeviation="3.44865"/>
<feComposite in2="hardAlpha" operator="out"/>
<feColorMatrix type="matrix" values="0 0 0 0 0.211765 0 0 0 0 0.454902 0 0 0 0 0.709804 0 0 0 0.25 0"/>
<feBlend mode="normal" in2="BackgroundImageFix" result="effect1_dropShadow_589_1248"/>
<feBlend mode="normal" in="BackgroundImageFix" in2="effect1_dropShadow_589_1248" result="BackgroundImageFix"/>
<feBlend mode="normal" in="SourceGraphic" in2="BackgroundImageFix" result="shape"/>
</filter>
<radialGradient id="paint0_radial_589_1248" cx="0" cy="0" r="1" gradientUnits="userSpaceOnUse" gradientTransform="translate(21.5 11) rotate(52.8691) scale(87.8009)">
<stop stop-color="#EEF2FD"/>
<stop offset="1" stop-color="#EEF2FD" stop-opacity="0.5"/>
</radialGradient>
<linearGradient id="paint1_linear_589_1248" x1="12.0492" y1="11.1215" x2="84.6184" y2="80.507" gradientUnits="userSpaceOnUse">
<stop stop-color="#D1A843"/>
<stop offset="0.25" stop-color="#C5C5C5"/>
<stop offset="0.5" stop-color="#3674B5"/>
</linearGradient>
</defs>
</svg>
