<svg width="75" height="75" viewBox="0 0 75 75" fill="none" xmlns="http://www.w3.org/2000/svg">
<g filter="url(#filter0_d_584_1888)">
<rect x="7.5" y="6" width="60" height="60" rx="16" fill="url(#paint0_radial_584_1888)" fill-opacity="0.2" shape-rendering="crispEdges"/>
<path d="M25.85 54C25.0833 54 24.342 53.7333 23.626 53.2C22.91 52.6667 22.4347 52.0167 22.2 51.25C21.3667 48.45 20.6833 46.0253 20.15 43.976C19.6167 41.9267 19.1913 40.1267 18.874 38.576C18.5567 37.0253 18.332 35.65 18.2 34.45C18.068 33.25 18.0013 32.1 18 31C18 27.9333 19.0667 25.3333 21.2 23.2C23.3333 21.0667 25.9333 20 29 20H39C39.9 18.8 41.042 17.8333 42.426 17.1C43.81 16.3667 45.3347 16 47 16C47.8333 16 48.542 16.292 49.126 16.876C49.71 17.46 50.0013 18.168 50 19C50 19.2 49.9747 19.4 49.924 19.6C49.8733 19.8 49.8153 19.9833 49.75 20.15C49.6167 20.5167 49.492 20.8833 49.376 21.25C49.26 21.6167 49.168 22.0167 49.1 22.45L53.65 27H56C56.5667 27 57.042 27.192 57.426 27.576C57.81 27.96 58.0013 28.4347 58 29V39.5C58 39.9333 57.8753 40.3167 57.626 40.65C57.3767 40.9833 57.0347 41.2333 56.6 41.4L52.35 42.8L49.85 51.15C49.5833 52.0167 49.1 52.7087 48.4 53.226C47.7 53.7433 46.9 54.0013 46 54H42C40.9 54 39.9587 53.6087 39.176 52.826C38.3933 52.0433 38.0013 51.1013 38 50H34C34 51.1 33.6087 52.042 32.826 52.826C32.0433 53.61 31.1013 54.0013 30 54H25.85ZM26 50H30V46H42V50H46L49.1 39.7L54 38.05V31H52L45 24C45 23.3333 45.042 22.6833 45.126 22.05C45.21 21.4167 45.3347 20.8 45.5 20.2C44.5333 20.4667 43.6833 20.9253 42.95 21.576C42.2167 22.2267 41.6833 23.0347 41.35 24H29C27.0667 24 25.4167 24.6833 24.05 26.05C22.6833 27.4167 22 29.0667 22 31C22 32.3667 22.35 34.7087 23.05 38.026C23.75 41.3433 24.7333 45.3347 26 50ZM46 34C46.5667 34 47.042 33.808 47.426 33.424C47.81 33.04 48.0013 32.5653 48 32C47.9987 31.4347 47.8067 30.96 47.424 30.576C47.0413 30.192 46.5667 30 46 30C45.4333 30 44.9587 30.192 44.576 30.576C44.1933 30.96 44.0013 31.4347 44 32C43.9987 32.5653 44.1907 33.0407 44.576 33.426C44.9613 33.8113 45.436 34.0027 46 34ZM38 30C38.5667 30 39.042 29.808 39.426 29.424C39.81 29.04 40.0013 28.5653 40 28C39.9987 27.4347 39.8067 26.96 39.424 26.576C39.0413 26.192 38.5667 26 38 26H32C31.4333 26 30.9587 26.192 30.576 26.576C30.1933 26.96 30.0013 27.4347 30 28C29.9987 28.5653 30.1907 29.0407 30.576 29.426C30.9613 29.8113 31.436 30.0027 32 30H38Z" fill="url(#paint1_linear_584_1888)"/>
</g>
<defs>
<filter id="filter0_d_584_1888" x="0.602706" y="0.863717" width="73.7946" height="73.7946" filterUnits="userSpaceOnUse" color-interpolation-filters="sRGB">
<feFlood flood-opacity="0" result="BackgroundImageFix"/>
<feColorMatrix in="SourceAlpha" type="matrix" values="0 0 0 0 0 0 0 0 0 0 0 0 0 0 0 0 0 0 127 0" result="hardAlpha"/>
<feOffset dy="1.76101"/>
<feGaussianBlur stdDeviation="3.44865"/>
<feComposite in2="hardAlpha" operator="out"/>
<feColorMatrix type="matrix" values="0 0 0 0 0.819608 0 0 0 0 0.658824 0 0 0 0 0.262745 0 0 0 0.25 0"/>
<feBlend mode="normal" in2="BackgroundImageFix" result="effect1_dropShadow_584_1888"/>
<feBlend mode="normal" in="BackgroundImageFix" in2="effect1_dropShadow_584_1888" result="BackgroundImageFix"/>
<feBlend mode="normal" in="SourceGraphic" in2="BackgroundImageFix" result="shape"/>
</filter>
<radialGradient id="paint0_radial_584_1888" cx="0" cy="0" r="1" gradientUnits="userSpaceOnUse" gradientTransform="translate(18 9.75) rotate(52.8691) scale(65.8507)">
<stop stop-color="#FFF8E6"/>
<stop offset="1" stop-color="#FFF8E6" stop-opacity="0.5"/>
</radialGradient>
<linearGradient id="paint1_linear_584_1888" x1="13.3741" y1="12.2791" x2="60.6953" y2="59.6382" gradientUnits="userSpaceOnUse">
<stop stop-color="#233562"/>
<stop offset="0.356637" stop-color="#537EEA"/>
<stop offset="1" stop-color="#233562"/>
</linearGradient>
</defs>
</svg>
