<svg width="75" height="75" viewBox="0 0 75 75" fill="none" xmlns="http://www.w3.org/2000/svg">
<g filter="url(#filter0_d_584_1904)">
<rect x="7.5" y="6" width="60" height="60" rx="16" fill="url(#paint0_radial_584_1904)" fill-opacity="0.2" shape-rendering="crispEdges"/>
<path d="M38 54C37.4 54 36.8253 53.892 36.276 53.676C35.7267 53.46 35.2347 53.1347 34.8 52.7L21.4 39.25C20.2333 38.0833 19.3753 36.75 18.826 35.25C18.2767 33.75 18.0013 32.1833 18 30.55C18 27.1167 19.1167 24.1667 21.35 21.7C23.5833 19.2333 26.3667 18 29.7 18C31.3 18 32.8087 18.3167 34.226 18.95C35.6433 19.5833 36.9013 20.4667 38 21.6C39.0667 20.4667 40.3087 19.5833 41.726 18.95C43.1433 18.3167 44.6513 18 46.25 18C49.5833 18 52.3753 19.2333 54.626 21.7C56.8767 24.1667 58.0013 27.1 58 30.5C58 32.1333 57.7167 33.7 57.15 35.2C56.5833 36.7 55.7333 38.0333 54.6 39.2L41.15 52.7C40.7167 53.1333 40.2333 53.4587 39.7 53.676C39.1667 53.8933 38.6 54.0013 38 54ZM40 28C40.3333 28 40.65 28.0833 40.95 28.25C41.25 28.4167 41.4833 28.6333 41.65 28.9L45.05 34H53.35C53.5833 33.4333 53.7587 32.8587 53.876 32.276C53.9933 31.6933 54.0513 31.1013 54.05 30.5C53.9833 28.2 53.2167 26.2247 51.75 24.574C50.2833 22.9233 48.45 22.0987 46.25 22.1C45.2167 22.1 44.2253 22.3 43.276 22.7C42.3267 23.1 41.5013 23.6833 40.8 24.45L39.45 25.9C39.2833 26.1 39.0667 26.2587 38.8 26.376C38.5333 26.4933 38.2667 26.5513 38 26.55C37.7333 26.5487 37.4667 26.4907 37.2 26.376C36.9333 26.2613 36.7 26.1027 36.5 25.9L35.15 24.45C34.45 23.6833 33.6333 23.0833 32.7 22.65C31.7667 22.2167 30.7667 22 29.7 22C27.5 22 25.6667 22.842 24.2 24.526C22.7333 26.21 22 28.2013 22 30.5C22 31.1 22.05 31.692 22.15 32.276C22.25 32.86 22.4167 33.4347 22.65 34H32C32.3333 34 32.65 34.0833 32.95 34.25C33.25 34.4167 33.4833 34.6333 33.65 34.9L35.4 37.5L38.1 29.4C38.2333 29 38.4747 28.6667 38.824 28.4C39.1733 28.1333 39.5653 28 40 28ZM40.6 34.5L37.9 42.6C37.7667 43 37.5167 43.3333 37.15 43.6C36.7833 43.8667 36.3833 44 35.95 44C35.6167 44 35.3 43.9167 35 43.75C34.7 43.5833 34.4667 43.3667 34.3 43.1L30.9 38H25.8L37.65 49.85C37.7167 49.9167 37.7753 49.9587 37.826 49.976C37.8767 49.9933 37.9347 50.0013 38 50C38.0653 49.9987 38.124 49.9907 38.176 49.976C38.228 49.9613 38.286 49.9193 38.35 49.85L50.15 38H44C43.6667 38 43.35 37.9167 43.05 37.75C42.75 37.5833 42.5 37.3667 42.3 37.1L40.6 34.5Z" fill="url(#paint1_linear_584_1904)"/>
</g>
<defs>
<filter id="filter0_d_584_1904" x="0.602706" y="0.863717" width="73.7946" height="73.7946" filterUnits="userSpaceOnUse" color-interpolation-filters="sRGB">
<feFlood flood-opacity="0" result="BackgroundImageFix"/>
<feColorMatrix in="SourceAlpha" type="matrix" values="0 0 0 0 0 0 0 0 0 0 0 0 0 0 0 0 0 0 127 0" result="hardAlpha"/>
<feOffset dy="1.76101"/>
<feGaussianBlur stdDeviation="3.44865"/>
<feComposite in2="hardAlpha" operator="out"/>
<feColorMatrix type="matrix" values="0 0 0 0 0.819608 0 0 0 0 0.658824 0 0 0 0 0.262745 0 0 0 0.25 0"/>
<feBlend mode="normal" in2="BackgroundImageFix" result="effect1_dropShadow_584_1904"/>
<feBlend mode="normal" in="BackgroundImageFix" in2="effect1_dropShadow_584_1904" result="BackgroundImageFix"/>
<feBlend mode="normal" in="SourceGraphic" in2="BackgroundImageFix" result="shape"/>
</filter>
<radialGradient id="paint0_radial_584_1904" cx="0" cy="0" r="1" gradientUnits="userSpaceOnUse" gradientTransform="translate(18 9.75) rotate(52.8691) scale(65.8507)">
<stop stop-color="#FFF8E6"/>
<stop offset="1" stop-color="#FFF8E6" stop-opacity="0.5"/>
</radialGradient>
<linearGradient id="paint1_linear_584_1904" x1="13.3742" y1="14.4749" x2="58.1374" y2="61.7629" gradientUnits="userSpaceOnUse">
<stop stop-color="#233562"/>
<stop offset="0.356637" stop-color="#537EEA"/>
<stop offset="1" stop-color="#233562"/>
</linearGradient>
</defs>
</svg>
