<svg width="64" height="64" viewBox="0 0 64 64" fill="none" xmlns="http://www.w3.org/2000/svg">
<path d="M27.9333 58.6666C26.6889 58.6666 25.5227 58.4 24.4347 57.8666C23.3467 57.3333 22.424 56.5777 21.6667 55.6L8.26668 38.6C7.91112 38.2 7.75557 37.7226 7.80001 37.168C7.84445 36.6133 8.04445 36.1573 8.40001 35.8C9.2889 34.8666 10.3556 34.3111 11.6 34.1333C12.8445 33.9555 14 34.2 15.0667 34.8666L20 37.8666V16C20 15.2444 20.256 14.6115 20.768 14.1013C21.28 13.5911 21.9129 13.3351 22.6667 13.3333C23.4205 13.3315 24.0649 13.5875 24.6 14.1013C25.1351 14.6151 25.4018 15.248 25.4 16V42.6666C25.4 43.6889 24.944 44.456 24.032 44.968C23.12 45.48 22.2205 45.4684 21.3333 44.9333L18.9333 43.4666L25.8667 52.3333C26.1333 52.6444 26.4445 52.8888 26.8 53.0666C27.1556 53.2444 27.5333 53.3333 27.9333 53.3333H42.6667C44.1333 53.3333 45.3893 52.8115 46.4347 51.768C47.48 50.7244 48.0018 49.4684 48 48V37.3333C48 36.5777 47.744 35.9449 47.232 35.4346C46.72 34.9244 46.0871 34.6684 45.3333 34.6666H33.4C32.6445 34.6666 32.0116 34.4106 31.5013 33.8986C30.9911 33.3866 30.7351 32.7537 30.7333 32C30.7316 31.2462 30.9876 30.6133 31.5013 30.1013C32.0151 29.5893 32.648 29.3333 33.4 29.3333H45.3333C47.5556 29.3333 49.4445 30.1111 51 31.6666C52.5556 33.2222 53.3333 35.1111 53.3333 37.3333V48C53.3333 50.9333 52.2889 53.4444 50.2 55.5333C48.1111 57.6222 45.6 58.6666 42.6667 58.6666H27.9333ZM31.9333 24C31.1778 24 30.5449 23.744 30.0347 23.232C29.5245 22.72 29.2685 22.0871 29.2667 21.3333C29.2667 21.2444 29.3778 20.8 29.6 20C29.9556 19.3777 30.2222 18.7449 30.4 18.1013C30.5778 17.4577 30.6667 16.7573 30.6667 16C30.6667 13.7777 29.8889 11.8889 28.3333 10.3333C26.7778 8.77774 24.8889 7.99996 22.6667 7.99996C20.4445 7.99996 18.5556 8.77774 17 10.3333C15.4445 11.8889 14.6667 13.7777 14.6667 16C14.6667 16.7555 14.7556 17.456 14.9333 18.1013C15.1111 18.7466 15.3778 19.3795 15.7333 20C15.8667 20.2222 15.9556 20.4444 16 20.6666C16.0445 20.8888 16.0667 21.1111 16.0667 21.3333C16.0667 22.0889 15.8222 22.7226 15.3333 23.2346C14.8445 23.7466 14.2222 24.0017 13.4667 24C12.9778 24 12.5227 23.8666 12.1013 23.6C11.68 23.3333 11.3573 23 11.1333 22.6C10.5556 21.6222 10.1111 20.5777 9.80001 19.4666C9.4889 18.3555 9.33334 17.2 9.33334 16C9.33334 12.3111 10.6338 9.16707 13.2347 6.56796C15.8356 3.96885 18.9796 2.66841 22.6667 2.66663C26.3538 2.66485 29.4987 3.96529 32.1013 6.56796C34.704 9.17063 36.0036 12.3146 36 16C36 17.2 35.8445 18.3555 35.5333 19.4666C35.2222 20.5777 34.7778 21.6222 34.2 22.6C33.9778 23 33.6667 23.3333 33.2667 23.6C32.8667 23.8666 32.4222 24 31.9333 24Z" fill="url(#paint0_linear_584_1919)"/>
<defs>
<linearGradient id="paint0_linear_584_1919" x1="8" y1="2.99994" x2="53" y2="58.9999" gradientUnits="userSpaceOnUse">
<stop offset="0.7" stop-color="#D1A843"/>
<stop offset="1" stop-color="#C5C5C5"/>
</linearGradient>
</defs>
</svg>
