<svg width="75" height="75" viewBox="0 0 75 75" fill="none" xmlns="http://www.w3.org/2000/svg">
<g filter="url(#filter0_d_584_1850)">
<rect x="7.5" y="6" width="60" height="60" rx="16" fill="url(#paint0_radial_584_1850)" fill-opacity="0.2" shape-rendering="crispEdges"/>
<path d="M30.8 54C27.7667 54 25.208 52.9587 23.124 50.876C21.04 48.7933 19.9987 46.2347 20 43.2C20 41.9333 20.2167 40.7 20.65 39.5C21.0833 38.3 21.7 37.2167 22.5 36.25L29.6 27.7L26.2 20.9C25.8667 20.2333 25.892 19.5833 26.276 18.95C26.66 18.3167 27.2347 18 28 18H48C48.7667 18 49.342 18.3167 49.726 18.95C50.11 19.5833 50.1347 20.2333 49.8 20.9L46.4 27.7L53.5 36.25C54.3 37.2167 54.9167 38.3 55.35 39.5C55.7833 40.7 56 41.9333 56 43.2C56 46.2333 54.95 48.792 52.85 50.876C50.75 52.96 48.2 54.0013 45.2 54H30.8ZM38 44C36.9 44 35.9587 43.6087 35.176 42.826C34.3933 42.0433 34.0013 41.1013 34 40C33.9987 38.8987 34.3907 37.9573 35.176 37.176C35.9613 36.3947 36.9027 36.0027 38 36C39.0973 35.9973 40.0393 36.3893 40.826 37.176C41.6127 37.9627 42.004 38.904 42 40C41.996 41.096 41.6047 42.038 40.826 42.826C40.0473 43.614 39.1053 44.0053 38 44ZM33.25 26H42.75L44.75 22H31.25L33.25 26ZM30.8 50H45.2C47.1 50 48.7087 49.342 50.026 48.026C51.3433 46.71 52.0013 45.1013 52 43.2C52 42.4 51.858 41.6253 51.574 40.876C51.29 40.1267 50.8987 39.4513 50.4 38.85L43.05 30H33L25.6 38.8C25.1 39.4 24.7087 40.0833 24.426 40.85C24.1433 41.6167 24.0013 42.4 24 43.2C24 45.1 24.6587 46.7087 25.976 48.026C27.2933 49.3433 28.9013 50.0013 30.8 50Z" fill="url(#paint1_linear_584_1850)"/>
</g>
<defs>
<filter id="filter0_d_584_1850" x="0.602706" y="0.863717" width="73.7946" height="73.7946" filterUnits="userSpaceOnUse" color-interpolation-filters="sRGB">
<feFlood flood-opacity="0" result="BackgroundImageFix"/>
<feColorMatrix in="SourceAlpha" type="matrix" values="0 0 0 0 0 0 0 0 0 0 0 0 0 0 0 0 0 0 127 0" result="hardAlpha"/>
<feOffset dy="1.76101"/>
<feGaussianBlur stdDeviation="3.44865"/>
<feComposite in2="hardAlpha" operator="out"/>
<feColorMatrix type="matrix" values="0 0 0 0 0.819608 0 0 0 0 0.658824 0 0 0 0 0.262745 0 0 0 0.25 0"/>
<feBlend mode="normal" in2="BackgroundImageFix" result="effect1_dropShadow_584_1850"/>
<feBlend mode="normal" in="BackgroundImageFix" in2="effect1_dropShadow_584_1850" result="BackgroundImageFix"/>
<feBlend mode="normal" in="SourceGraphic" in2="BackgroundImageFix" result="shape"/>
</filter>
<radialGradient id="paint0_radial_584_1850" cx="0" cy="0" r="1" gradientUnits="userSpaceOnUse" gradientTransform="translate(18 9.75) rotate(52.8691) scale(65.8507)">
<stop stop-color="#FFF8E6"/>
<stop offset="1" stop-color="#FFF8E6" stop-opacity="0.5"/>
</radialGradient>
<linearGradient id="paint1_linear_584_1850" x1="15.8367" y1="14.4749" x2="60.6103" y2="57.0439" gradientUnits="userSpaceOnUse">
<stop stop-color="#233562"/>
<stop offset="0.356637" stop-color="#537EEA"/>
<stop offset="1" stop-color="#233562"/>
</linearGradient>
</defs>
</svg>
