<svg width="75" height="75" viewBox="0 0 75 75" fill="none" xmlns="http://www.w3.org/2000/svg">
<g filter="url(#filter0_d_584_1857)">
<rect x="7.5" y="6" width="60" height="60" rx="16" fill="url(#paint0_radial_584_1857)" fill-opacity="0.2" shape-rendering="crispEdges"/>
<path d="M22 52V34C20.9 34 19.9587 33.6087 19.176 32.826C18.3933 32.0433 18.0013 31.1013 18 30V26C18 24.9 18.392 23.9587 19.176 23.176C19.96 22.3933 20.9013 22.0013 22 22H28.4C28.2333 21.7 28.1253 21.3833 28.076 21.05C28.0267 20.7167 28.0013 20.3667 28 20C28 18.3333 28.5833 16.9167 29.75 15.75C30.9167 14.5833 32.3333 14 34 14C34.7667 14 35.4833 14.142 36.15 14.426C36.8167 14.71 37.4333 15.1013 38 15.6C38.5667 15.0667 39.1833 14.6667 39.85 14.4C40.5167 14.1333 41.2333 14 42 14C43.6667 14 45.0833 14.5833 46.25 15.75C47.4167 16.9167 48 18.3333 48 20C48 20.3667 47.9667 20.7087 47.9 21.026C47.8333 21.3433 47.7333 21.668 47.6 22H54C55.1 22 56.042 22.392 56.826 23.176C57.61 23.96 58.0013 24.9013 58 26V30C58 31.1 57.6087 32.042 56.826 32.826C56.0433 33.61 55.1013 34.0013 54 34V52C54 53.1 53.6087 54.042 52.826 54.826C52.0433 55.61 51.1013 56.0013 50 56H26C24.9 56 23.9587 55.6087 23.176 54.826C22.3933 54.0433 22.0013 53.1013 22 52ZM42 18C41.4333 18 40.9587 18.192 40.576 18.576C40.1933 18.96 40.0013 19.4347 40 20C39.9987 20.5653 40.1907 21.0407 40.576 21.426C40.9613 21.8113 41.436 22.0027 42 22C42.564 21.9973 43.0393 21.8053 43.426 21.424C43.8127 21.0427 44.004 20.568 44 20C43.996 19.432 43.804 18.9573 43.424 18.576C43.044 18.1947 42.5693 18.0027 42 18ZM32 20C32 20.5667 32.192 21.042 32.576 21.426C32.96 21.81 33.4347 22.0013 34 22C34.5653 21.9987 35.0407 21.8067 35.426 21.424C35.8113 21.0413 36.0027 20.5667 36 20C35.9973 19.4333 35.8053 18.9587 35.424 18.576C35.0427 18.1933 34.568 18.0013 34 18C33.432 17.9987 32.9573 18.1907 32.576 18.576C32.1947 18.9613 32.0027 19.436 32 20ZM22 26V30H36V26H22ZM36 52V34H26V52H36ZM40 52H50V34H40V52ZM54 30V26H40V30H54Z" fill="url(#paint1_linear_584_1857)"/>
</g>
<defs>
<filter id="filter0_d_584_1857" x="0.602706" y="0.863717" width="73.7946" height="73.7946" filterUnits="userSpaceOnUse" color-interpolation-filters="sRGB">
<feFlood flood-opacity="0" result="BackgroundImageFix"/>
<feColorMatrix in="SourceAlpha" type="matrix" values="0 0 0 0 0 0 0 0 0 0 0 0 0 0 0 0 0 0 127 0" result="hardAlpha"/>
<feOffset dy="1.76101"/>
<feGaussianBlur stdDeviation="3.44865"/>
<feComposite in2="hardAlpha" operator="out"/>
<feColorMatrix type="matrix" values="0 0 0 0 0.819608 0 0 0 0 0.658824 0 0 0 0 0.262745 0 0 0 0.25 0"/>
<feBlend mode="normal" in2="BackgroundImageFix" result="effect1_dropShadow_584_1857"/>
<feBlend mode="normal" in="BackgroundImageFix" in2="effect1_dropShadow_584_1857" result="BackgroundImageFix"/>
<feBlend mode="normal" in="SourceGraphic" in2="BackgroundImageFix" result="shape"/>
</filter>
<radialGradient id="paint0_radial_584_1857" cx="0" cy="0" r="1" gradientUnits="userSpaceOnUse" gradientTransform="translate(18 9.75) rotate(52.8691) scale(65.8507)">
<stop stop-color="#FFF8E6"/>
<stop offset="1" stop-color="#FFF8E6" stop-opacity="0.5"/>
</radialGradient>
<linearGradient id="paint1_linear_584_1857" x1="13.3742" y1="9.88739" x2="65.4198" y2="57.0141" gradientUnits="userSpaceOnUse">
<stop stop-color="#233562"/>
<stop offset="0.356637" stop-color="#537EEA"/>
<stop offset="1" stop-color="#233562"/>
</linearGradient>
</defs>
</svg>
