<svg width="75" height="75" viewBox="0 0 75 75" fill="none" xmlns="http://www.w3.org/2000/svg">
<g filter="url(#filter0_d_584_1896)">
<rect x="7.5" y="6" width="60" height="60" rx="16" fill="url(#paint0_radial_584_1896)" fill-opacity="0.2" shape-rendering="crispEdges"/>
<path d="M41.9 52.8L53.8 49.1C53.6333 48.8 53.392 48.542 53.076 48.326C52.76 48.11 52.4013 48.0013 52 48H41.9C41 48 40.2833 47.9667 39.75 47.9C39.2167 47.8333 38.6667 47.7 38.1 47.5L35.25 46.55C34.7167 46.3833 34.3333 46.05 34.1 45.55C33.8667 45.05 33.8333 44.5333 34 44C34.1667 43.4667 34.492 43.0747 34.976 42.824C35.46 42.5733 35.968 42.532 36.5 42.7L38.6 43.4C39.1667 43.5667 39.8087 43.7 40.526 43.8C41.2433 43.9 42.218 43.9667 43.45 44H44C44 43.6333 43.892 43.2833 43.676 42.95C43.46 42.6167 43.2013 42.4 42.9 42.3L31.2 38H28V49L41.9 52.8ZM40.85 56.7L28 53.1C27.7333 53.9667 27.208 54.6667 26.424 55.2C25.64 55.7333 24.832 56 24 56H20C18.9 56 17.9587 55.6087 17.176 54.826C16.3933 54.0433 16.0013 53.1013 16 52V38C16 36.9 16.392 35.9587 17.176 35.176C17.96 34.3933 18.9013 34.0013 20 34H31.2C31.4333 34 31.6667 34.0253 31.9 34.076C32.1333 34.1267 32.35 34.1847 32.55 34.25L44.3 38.6C45.4 39 46.292 39.7 46.976 40.7C47.66 41.7 48.0013 42.8 48 44H52C53.6667 44 55.0833 44.55 56.25 45.65C57.4167 46.75 58 48.2 58 50C58 50.7333 57.808 51.3087 57.424 51.726C57.04 52.1433 56.4487 52.4847 55.65 52.75L43.15 56.65C42.7833 56.7833 42.4 56.85 42 56.85C41.6 56.85 41.2167 56.8 40.85 56.7ZM20 52H24V38H20V52ZM46 36.4C45.5 36.4 45.0087 36.3087 44.526 36.126C44.0433 35.9433 43.6013 35.668 43.2 35.3L37.7 29.9C36.6667 28.9 35.792 27.792 35.076 26.576C34.36 25.36 34.0013 24.0347 34 22.6C34 20.7667 34.642 19.2087 35.926 17.926C37.21 16.6433 38.768 16.0013 40.6 16C41.6667 16 42.6667 16.2253 43.6 16.676C44.5333 17.1267 45.3333 17.7347 46 18.5C46.6667 17.7333 47.4667 17.1247 48.4 16.674C49.3333 16.2233 50.3333 15.9987 51.4 16C53.2333 16 54.792 16.642 56.076 17.926C57.36 19.21 58.0013 20.768 58 22.6C58 24.0333 57.65 25.3587 56.95 26.576C56.25 27.7933 55.3833 28.9013 54.35 29.9L48.8 35.3C48.4 35.6667 47.9587 35.942 47.476 36.126C46.9933 36.31 46.5013 36.4013 46 36.4ZM46 32.4L51.45 27.05C52.0833 26.4167 52.6667 25.742 53.2 25.026C53.7333 24.31 54 23.5013 54 22.6C54 21.8667 53.75 21.25 53.25 20.75C52.75 20.25 52.1333 20 51.4 20C50.9333 20 50.4913 20.092 50.074 20.276C49.6567 20.46 49.2987 20.7347 49 21.1L47.55 22.85C47.15 23.3167 46.6333 23.55 46 23.55C45.3667 23.55 44.85 23.3167 44.45 22.85L43 21.1C42.7 20.7333 42.3413 20.458 41.924 20.274C41.5067 20.09 41.0653 19.9987 40.6 20C39.8667 20 39.25 20.25 38.75 20.75C38.25 21.25 38 21.8667 38 22.6C38 23.5 38.2667 24.3087 38.8 25.026C39.3333 25.7433 39.9167 26.418 40.55 27.05L46 32.4Z" fill="url(#paint1_linear_584_1896)"/>
</g>
<defs>
<filter id="filter0_d_584_1896" x="0.602706" y="0.863717" width="73.7946" height="73.7946" filterUnits="userSpaceOnUse" color-interpolation-filters="sRGB">
<feFlood flood-opacity="0" result="BackgroundImageFix"/>
<feColorMatrix in="SourceAlpha" type="matrix" values="0 0 0 0 0 0 0 0 0 0 0 0 0 0 0 0 0 0 127 0" result="hardAlpha"/>
<feOffset dy="1.76101"/>
<feGaussianBlur stdDeviation="3.44865"/>
<feComposite in2="hardAlpha" operator="out"/>
<feColorMatrix type="matrix" values="0 0 0 0 0.819608 0 0 0 0 0.658824 0 0 0 0 0.262745 0 0 0 0.25 0"/>
<feBlend mode="normal" in2="BackgroundImageFix" result="effect1_dropShadow_584_1896"/>
<feBlend mode="normal" in="BackgroundImageFix" in2="effect1_dropShadow_584_1896" result="BackgroundImageFix"/>
<feBlend mode="normal" in="SourceGraphic" in2="BackgroundImageFix" result="shape"/>
</filter>
<radialGradient id="paint0_radial_584_1896" cx="0" cy="0" r="1" gradientUnits="userSpaceOnUse" gradientTransform="translate(18 9.75) rotate(52.8691) scale(65.8507)">
<stop stop-color="#FFF8E6"/>
<stop offset="1" stop-color="#FFF8E6" stop-opacity="0.5"/>
</radialGradient>
<linearGradient id="paint1_linear_584_1896" x1="11.1429" y1="12" x2="62" y2="61.7143" gradientUnits="userSpaceOnUse">
<stop stop-color="#233562"/>
<stop offset="0.356637" stop-color="#537EEA"/>
<stop offset="1" stop-color="#233562"/>
</linearGradient>
</defs>
</svg>
