<svg width="64" height="64" viewBox="0 0 64 64" fill="none" xmlns="http://www.w3.org/2000/svg">
<path d="M29.2 33.8666L25.4666 30.1333C24.9333 29.5999 24.3111 29.3333 23.6 29.3333C22.8888 29.3333 22.2666 29.5999 21.7333 30.1333C21.2 30.6666 20.9333 31.3004 20.9333 32.0346C20.9333 32.7688 21.2 33.4017 21.7333 33.9333L27.3333 39.5999C27.8666 40.1333 28.4888 40.3999 29.2 40.3999C29.9111 40.3999 30.5333 40.1333 31.0666 39.5999L42.4 28.2666C42.9333 27.7333 43.2 27.1004 43.2 26.3679C43.2 25.6355 42.9333 25.0017 42.4 24.4666C41.8666 23.9315 41.2337 23.6648 40.5013 23.6666C39.7688 23.6684 39.1351 23.9351 38.6 24.4666L29.2 33.8666ZM32 58.3999C31.6888 58.3999 31.4 58.3777 31.1333 58.3333C30.8666 58.2888 30.6 58.2222 30.3333 58.1333C24.3333 56.1333 19.5555 52.4337 16 47.0346C12.4444 41.6355 10.6666 35.8239 10.6666 29.5999V16.9999C10.6666 15.8888 10.9893 14.8888 11.6346 13.9999C12.28 13.1111 13.1128 12.4666 14.1333 12.0666L30.1333 6.06661C30.7555 5.84439 31.3777 5.73328 32 5.73328C32.6222 5.73328 33.2444 5.84439 33.8666 6.06661L49.8666 12.0666C50.8889 12.4666 51.7226 13.1111 52.368 13.9999C53.0133 14.8888 53.3351 15.8888 53.3333 16.9999V29.5999C53.3333 35.8222 51.5555 41.6337 48 47.0346C44.4444 52.4355 39.6666 56.1351 33.6666 58.1333C33.4 58.2222 33.1333 58.2888 32.8666 58.3333C32.6 58.3777 32.3111 58.3999 32 58.3999ZM32 53.0666C36.6222 51.5999 40.4444 48.6666 43.4666 44.2666C46.4888 39.8666 48 34.9777 48 29.5999V16.9999L32 10.9999L16 16.9999V29.5999C16 34.9777 17.5111 39.8666 20.5333 44.2666C23.5555 48.6666 27.3777 51.5999 32 53.0666Z" fill="url(#paint0_linear_584_1922)"/>
<defs>
<linearGradient id="paint0_linear_584_1922" x1="10.8609" y1="6.04675" x2="53.2169" y2="58.5554" gradientUnits="userSpaceOnUse">
<stop offset="0.7" stop-color="#D1A843"/>
<stop offset="1" stop-color="#C5C5C5"/>
</linearGradient>
</defs>
</svg>
