<svg width="64" height="64" viewBox="0 0 64 64" fill="none" xmlns="http://www.w3.org/2000/svg">
<path d="M37.3333 24C36.5778 24 35.9449 23.744 35.4347 23.232C34.9245 22.72 34.6685 22.0871 34.6667 21.3333C34.6649 20.5796 34.9209 19.9467 35.4347 19.4347C35.9485 18.9227 36.5813 18.6667 37.3333 18.6667H42.6667V10.6667C42.6667 9.91112 42.9227 9.27823 43.4347 8.76801C43.9467 8.25779 44.5796 8.00179 45.3333 8.00001C46.0871 7.99823 46.7209 8.25423 47.2347 8.76801C47.7485 9.28179 48.0036 9.91468 48 10.6667V18.6667H53.3333C54.0889 18.6667 54.7227 18.9227 55.2347 19.4347C55.7467 19.9467 56.0018 20.5796 56 21.3333C55.9982 22.0871 55.7422 22.7209 55.232 23.2347C54.7218 23.7485 54.0889 24.0036 53.3333 24H37.3333ZM45.3333 56C44.5778 56 43.9449 55.744 43.4347 55.232C42.9245 54.72 42.6685 54.0871 42.6667 53.3333V32C42.6667 31.2445 42.9227 30.6116 43.4347 30.1013C43.9467 29.5911 44.5796 29.3351 45.3333 29.3333C46.0871 29.3316 46.7209 29.5876 47.2347 30.1013C47.7485 30.6151 48.0036 31.248 48 32V53.3333C48 54.0889 47.744 54.7227 47.232 55.2347C46.72 55.7467 46.0871 56.0018 45.3333 56ZM18.6667 56C17.9111 56 17.2782 55.744 16.768 55.232C16.2578 54.72 16.0018 54.0871 16 53.3333V45.3333H10.6667C9.91112 45.3333 9.27823 45.0773 8.76801 44.5653C8.25779 44.0533 8.00179 43.4205 8.00001 42.6667C7.99823 41.9129 8.25423 41.28 8.76801 40.768C9.28179 40.256 9.91468 40 10.6667 40H26.6667C27.4222 40 28.056 40.256 28.568 40.768C29.08 41.28 29.3351 41.9129 29.3333 42.6667C29.3316 43.4205 29.0756 44.0542 28.5653 44.568C28.0551 45.0818 27.4222 45.3369 26.6667 45.3333H21.3333V53.3333C21.3333 54.0889 21.0773 54.7227 20.5653 55.2347C20.0533 55.7467 19.4205 56.0018 18.6667 56ZM18.6667 34.6667C17.9111 34.6667 17.2782 34.4107 16.768 33.8987C16.2578 33.3867 16.0018 32.7538 16 32V10.6667C16 9.91112 16.256 9.27823 16.768 8.76801C17.28 8.25779 17.9129 8.00179 18.6667 8.00001C19.4205 7.99823 20.0542 8.25423 20.568 8.76801C21.0818 9.28179 21.3369 9.91468 21.3333 10.6667V32C21.3333 32.7556 21.0773 33.3893 20.5653 33.9013C20.0533 34.4133 19.4205 34.6685 18.6667 34.6667Z" fill="url(#paint0_linear_584_1925)"/>
<defs>
<linearGradient id="paint0_linear_584_1925" x1="8.2186" y1="8.2857" x2="44.3927" y2="63.6413" gradientUnits="userSpaceOnUse">
<stop offset="0.7" stop-color="#D1A843"/>
<stop offset="1" stop-color="#C5C5C5"/>
</linearGradient>
</defs>
</svg>
