<svg width="48" height="48" viewBox="0 0 48 48" fill="none" xmlns="http://www.w3.org/2000/svg">
<path d="M5.40004 35.2499C5.00004 34.8499 4.80804 34.3752 4.82404 33.8259C4.84004 33.2765 5.03204 32.8179 5.40004 32.4499L15.95 21.7499C16.7167 20.9832 17.6667 20.5999 18.8 20.5999C19.9334 20.5999 20.8834 20.9832 21.65 21.7499L26.8 26.9499L37.2 16.6499H34C33.4334 16.6499 32.9587 16.4579 32.576 16.0739C32.1934 15.6899 32.0014 15.2159 32 14.6519C31.9987 14.0879 32.1907 13.6132 32.576 13.2279C32.9614 12.8425 33.436 12.6505 34 12.6519H42C42.5667 12.6519 43.042 12.8439 43.426 13.2279C43.81 13.6119 44.0014 14.0865 44 14.6519V22.6519C44 23.2185 43.808 23.6939 43.424 24.0779C43.04 24.4619 42.5654 24.6532 42 24.6519C41.4347 24.6505 40.96 24.4592 40.576 24.0779C40.192 23.6965 40 23.2212 40 22.6519V19.4519L29.65 29.7999C28.8834 30.5665 27.9334 30.9499 26.8 30.9499C25.6667 30.9499 24.7167 30.5665 23.95 29.7999L18.8 24.6499L8.20004 35.2499C7.83338 35.6165 7.36671 35.7999 6.80004 35.7999C6.23338 35.7999 5.76671 35.6165 5.40004 35.2499Z" fill="url(#paint0_linear_444_2488)"/>
<defs>
<linearGradient id="paint0_linear_444_2488" x1="0.292455" y1="10.3852" x2="26.1387" y2="51.975" gradientUnits="userSpaceOnUse">
<stop stop-color="#D1A843"/>
<stop offset="0.25" stop-color="#C5C5C5"/>
<stop offset="0.5" stop-color="#3674B5"/>
</linearGradient>
</defs>
</svg>
