<svg width="65" height="64" viewBox="0 0 65 64" fill="none" xmlns="http://www.w3.org/2000/svg">
<path d="M25.9667 32L45.5667 51.6C46.2333 52.2667 46.556 53.0444 46.5347 53.9333C46.5133 54.8222 46.1684 55.6 45.5 56.2667C44.8316 56.9333 44.0538 57.2667 43.1667 57.2667C42.2796 57.2667 41.5018 56.9333 40.8333 56.2667L20.3 35.8C19.7667 35.2667 19.3667 34.6667 19.1 34C18.8333 33.3333 18.7 32.6667 18.7 32C18.7 31.3333 18.8333 30.6667 19.1 30C19.3667 29.3333 19.7667 28.7333 20.3 28.2L40.8333 7.66667C41.5 7 42.2893 6.67733 43.2013 6.69867C44.1133 6.72 44.9018 7.06489 45.5667 7.73333C46.2316 8.40178 46.5649 9.17955 46.5667 10.0667C46.5684 10.9538 46.2351 11.7316 45.5667 12.4L25.9667 32Z" fill="#3674B5"/>
</svg>
