<svg width="64" height="64" viewBox="0 0 64 64" fill="none" xmlns="http://www.w3.org/2000/svg">
<path d="M38.6 32L19 12.4C18.3333 11.7333 18.0107 10.944 18.032 10.032C18.0533 9.12 18.3982 8.33155 19.0667 7.66666C19.7351 7.00177 20.5244 6.66844 21.4347 6.66666C22.3449 6.66489 23.1333 6.99822 23.8 7.66666L44.2667 28.2C44.8 28.7333 45.2 29.3333 45.4667 30C45.7333 30.6667 45.8667 31.3333 45.8667 32C45.8667 32.6667 45.7333 33.3333 45.4667 34C45.2 34.6667 44.8 35.2667 44.2667 35.8L23.7333 56.3333C23.0667 57 22.2889 57.3227 21.4 57.3013C20.5111 57.28 19.7333 56.9351 19.0667 56.2667C18.4 55.5982 18.0667 54.8089 18.0667 53.8987C18.0667 52.9884 18.4 52.2 19.0667 51.5333L38.6 32Z" fill="#3674B5"/>
</svg>
