<svg width="64" height="64" viewBox="0 0 64 64" fill="none" xmlns="http://www.w3.org/2000/svg">
<path d="M42.6667 22.4L18.9333 46.1333C18.4445 46.6222 17.8222 46.8667 17.0667 46.8667C16.3111 46.8667 15.6889 46.6222 15.2 46.1333C14.7111 45.6444 14.4667 45.0222 14.4667 44.2667C14.4667 43.5111 14.7111 42.8889 15.2 42.4L38.9333 18.6667H18.6667C17.9111 18.6667 17.2782 18.4107 16.768 17.8987C16.2578 17.3867 16.0018 16.7538 16 16C15.9982 15.2462 16.2542 14.6133 16.768 14.1013C17.2818 13.5893 17.9147 13.3333 18.6667 13.3333H45.3333C46.0889 13.3333 46.7227 13.5893 47.2347 14.1013C47.7467 14.6133 48.0018 15.2462 48 16V42.6667C48 43.4222 47.744 44.056 47.232 44.568C46.72 45.08 46.0871 45.3351 45.3333 45.3333C44.5796 45.3316 43.9467 45.0756 43.4347 44.5653C42.9227 44.0551 42.6667 43.4222 42.6667 42.6667V22.4Z" fill="#6B6B6B"/>
</svg>
