<svg width="28" height="28" viewBox="0 0 28 28" fill="none" xmlns="http://www.w3.org/2000/svg">
<path d="M11.9 16.1L8.675 12.875C8.4 12.6 8.05 12.4625 7.625 12.4625C7.2 12.4625 6.85 12.6 6.575 12.875C6.3 13.15 6.1625 13.5 6.1625 13.925C6.1625 14.35 6.3 14.7 6.575 14.975L10.85 19.25C11.15 19.55 11.5 19.7 11.9 19.7C12.3 19.7 12.65 19.55 12.95 19.25L21.425 10.775C21.7 10.5 21.8375 10.15 21.8375 9.725C21.8375 9.3 21.7 8.95 21.425 8.675C21.15 8.4 20.8 8.2625 20.375 8.2625C19.95 8.2625 19.6 8.4 19.325 8.675L11.9 16.1ZM3.5 27.5C2.675 27.5 1.969 27.2065 1.382 26.6195C0.795 26.0325 0.501 25.326 0.5 24.5V3.5C0.5 2.675 0.794 1.969 1.382 1.382C1.97 0.795 2.676 0.501 3.5 0.5H24.5C25.325 0.5 26.0315 0.794 26.6195 1.382C27.2075 1.97 27.501 2.676 27.5 3.5V24.5C27.5 25.325 27.2065 26.0315 26.6195 26.6195C26.0325 27.2075 25.326 27.501 24.5 27.5H3.5Z" fill="#DEDEDE"/>
</svg>
