<svg width="64" height="64" viewBox="0 0 64 64" fill="none" xmlns="http://www.w3.org/2000/svg">
<path d="M9.46667 32L29.0667 51.6C29.7333 52.2667 30.056 53.0444 30.0347 53.9333C30.0133 54.8222 29.6684 55.6 29 56.2667C28.3316 56.9333 27.5538 57.2667 26.6667 57.2667C25.7796 57.2667 25.0018 56.9333 24.3333 56.2667L3.8 35.8C3.26667 35.2667 2.86667 34.6667 2.6 34C2.33333 33.3333 2.2 32.6667 2.2 32C2.2 31.3333 2.33333 30.6667 2.6 30C2.86667 29.3333 3.26667 28.7333 3.8 28.2L24.3333 7.66667C25 7 25.7893 6.67733 26.7013 6.69867C27.6133 6.72 28.4018 7.06489 29.0667 7.73333C29.7316 8.40178 30.0649 9.17955 30.0667 10.0667C30.0684 10.9538 29.7351 11.7316 29.0667 12.4L9.46667 32Z" fill="#181818"/>
</svg>
