<svg width="120" height="120" viewBox="0 0 120 120" fill="none" xmlns="http://www.w3.org/2000/svg">
<path d="M18.75 110C17.6667 110 16.7717 109.645 16.065 108.935C15.3584 108.225 15.0034 107.33 15 106.25C14.9967 105.17 15.3517 104.275 16.065 103.565C16.7784 102.855 17.6734 102.5 18.75 102.5H27.5V98.75H23.75C22.6667 98.75 21.7717 98.395 21.065 97.685C20.3584 96.975 20.0034 96.08 20 95C19.9967 93.92 20.3517 93.025 21.065 92.315C21.7784 91.605 22.6734 91.25 23.75 91.25H27.5V87.5H18.75C17.6667 87.5 16.7717 87.145 16.065 86.435C15.3584 85.725 15.0034 84.83 15 83.75C14.9967 82.67 15.3517 81.775 16.065 81.065C16.7784 80.355 17.6734 80 18.75 80H30C31.4167 80 32.605 80.48 33.565 81.44C34.525 82.4 35.0034 83.5867 35 85V90C35 91.4167 34.52 92.605 33.56 93.565C32.6 94.525 31.4134 95.0033 30 95C31.4167 95 32.605 95.48 33.565 96.44C34.525 97.4 35.0034 98.5867 35 100V105C35 106.417 34.52 107.605 33.56 108.565C32.6 109.525 31.4134 110.003 30 110H18.75ZM18.75 75C17.6667 75 16.7717 74.645 16.065 73.935C15.3584 73.225 15.0034 72.33 15 71.25V61.25C15 59.8333 15.48 58.6467 16.44 57.69C17.4 56.7333 18.5867 56.2533 20 56.25H27.5V52.5H18.75C17.6667 52.5 16.7717 52.145 16.065 51.435C15.3584 50.725 15.0034 49.83 15 48.75C14.9967 47.67 15.3517 46.775 16.065 46.065C16.7784 45.355 17.6734 45 18.75 45H30C31.4167 45 32.605 45.48 33.565 46.44C34.525 47.4 35.0034 48.5867 35 50V58.75C35 60.1667 34.52 61.355 33.56 62.315C32.6 63.275 31.4134 63.7533 30 63.75H22.5V67.5H31.25C32.3334 67.5 33.23 67.855 33.94 68.565C34.65 69.275 35.0034 70.17 35 71.25C34.9967 72.33 34.6417 73.2267 33.935 73.94C33.2284 74.6533 32.3334 75.0067 31.25 75H18.75ZM26.25 40C25.1667 40 24.2717 39.645 23.565 38.935C22.8584 38.225 22.5034 37.33 22.5 36.25V17.5H18.75C17.6667 17.5 16.7717 17.145 16.065 16.435C15.3584 15.725 15.0034 14.83 15 13.75C14.9967 12.67 15.3517 11.775 16.065 11.065C16.7784 10.355 17.6734 10 18.75 10H26.25C27.3334 10 28.23 10.355 28.94 11.065C29.65 11.775 30.0034 12.67 30 13.75V36.25C30 37.3333 29.645 38.23 28.935 38.94C28.225 39.65 27.33 40.0033 26.25 40ZM50 95C48.5834 95 47.3967 94.52 46.44 93.56C45.4834 92.6 45.0034 91.4133 45 90C44.9967 88.5867 45.4767 87.4 46.44 86.44C47.4034 85.48 48.59 85 50 85H100C101.417 85 102.605 85.48 103.565 86.44C104.525 87.4 105.003 88.5867 105 90C104.997 91.4133 104.517 92.6017 103.56 93.565C102.603 94.5283 101.417 95.0067 100 95H50ZM50 65C48.5834 65 47.3967 64.52 46.44 63.56C45.4834 62.6 45.0034 61.4133 45 60C44.9967 58.5867 45.4767 57.4 46.44 56.44C47.4034 55.48 48.59 55 50 55H100C101.417 55 102.605 55.48 103.565 56.44C104.525 57.4 105.003 58.5867 105 60C104.997 61.4133 104.517 62.6017 103.56 63.565C102.603 64.5283 101.417 65.0067 100 65H50ZM50 35C48.5834 35 47.3967 34.52 46.44 33.56C45.4834 32.6 45.0034 31.4133 45 30C44.9967 28.5867 45.4767 27.4 46.44 26.44C47.4034 25.48 48.59 25 50 25H100C101.417 25 102.605 25.48 103.565 26.44C104.525 27.4 105.003 28.5867 105 30C104.997 31.4133 104.517 32.6017 103.56 33.565C102.603 34.5283 101.417 35.0067 100 35H50Z" fill="#F97316"/>
</svg>
