<svg width="120" height="120" viewBox="0 0 120 120" fill="none" xmlns="http://www.w3.org/2000/svg">
<path d="M50.25 90H24.375C22.375 90 20.875 89.125 19.875 87.375C18.875 85.625 18.9584 83.9167 20.125 82.25L35 60H34.625C32.625 60 31.145 59.105 30.185 57.315C29.225 55.525 29.33 53.795 30.5 52.125L55.875 15.875C56.375 15.2084 57 14.6884 57.75 14.315C58.5 13.9417 59.25 13.7534 60 13.75C60.75 13.7467 61.5 13.935 62.25 14.315C63 14.695 63.625 15.215 64.125 15.875L89.5 52.125C90.6667 53.7917 90.7717 55.5217 89.815 57.315C88.8584 59.1084 87.3784 60.0034 85.3751 60H85L99.875 82.25C101.042 83.9167 101.125 85.625 100.125 87.375C99.125 89.125 97.625 90 95.625 90H69.75V105C69.75 106.417 69.2717 107.605 68.315 108.565C67.3584 109.525 66.17 110.003 64.75 110H55.25C53.8334 110 52.6467 109.52 51.69 108.56C50.7334 107.6 50.2534 106.413 50.25 105V90ZM33.75 80H53.75H44.25H75.75H66.25H86.25H33.75ZM33.75 80H86.25L66.25 50H75.75L60 27.5L44.25 50H53.75L33.75 80Z" fill="#6DB37D"/>
</svg>
