<svg width="64" height="64" viewBox="0 0 64 64" fill="none" xmlns="http://www.w3.org/2000/svg">
<path d="M32 29.3333C33.4667 29.3333 34.7227 28.8116 35.768 27.768C36.8133 26.7244 37.3351 25.4684 37.3333 24C37.3316 22.5316 36.8098 21.2764 35.768 20.2347C34.7262 19.1929 33.4702 18.6702 32 18.6667C30.5298 18.6631 29.2747 19.1858 28.2347 20.2347C27.1947 21.2836 26.672 22.5387 26.6667 24C26.6613 25.4613 27.184 26.7173 28.2347 27.768C29.2853 28.8187 30.5404 29.3404 32 29.3333ZM29.3333 50.6667V42.4C27.1556 41.9111 25.2116 40.9893 23.5013 39.6347C21.7911 38.28 20.5351 36.5796 19.7333 34.5333C16.4 34.1333 13.6116 32.6782 11.368 30.168C9.12444 27.6578 8.00178 24.7129 8 21.3333V18.6667C8 17.2 8.52267 15.9449 9.568 14.9013C10.6133 13.8578 11.8684 13.3351 13.3333 13.3333H18.6667C18.6667 11.8667 19.1893 10.6116 20.2347 9.568C21.28 8.52444 22.5351 8.00178 24 8H40C41.4667 8 42.7227 8.52267 43.768 9.568C44.8133 10.6133 45.3351 11.8684 45.3333 13.3333H50.6667C52.1333 13.3333 53.3893 13.856 54.4347 14.9013C55.48 15.9467 56.0018 17.2018 56 18.6667V21.3333C56 24.7111 54.8773 27.656 52.632 30.168C50.3867 32.68 47.5982 34.1351 44.2667 34.5333C43.4667 36.5778 42.2116 38.2782 40.5013 39.6347C38.7911 40.9911 36.8462 41.9129 34.6667 42.4V50.6667H42.6667C43.4222 50.6667 44.056 50.9227 44.568 51.4347C45.08 51.9467 45.3351 52.5796 45.3333 53.3333C45.3316 54.0871 45.0756 54.7209 44.5653 55.2347C44.0551 55.7484 43.4222 56.0036 42.6667 56H21.3333C20.5778 56 19.9449 55.744 19.4347 55.232C18.9244 54.72 18.6684 54.0871 18.6667 53.3333C18.6649 52.5796 18.9209 51.9467 19.4347 51.4347C19.9484 50.9227 20.5813 50.6667 21.3333 50.6667H29.3333ZM18.6667 28.8V18.6667H13.3333V21.3333C13.3333 23.0222 13.8222 24.5449 14.8 25.9013C15.7778 27.2578 17.0667 28.224 18.6667 28.8ZM32 37.3333C34.2222 37.3333 36.1111 36.5556 37.6667 35C39.2222 33.4444 40 31.5556 40 29.3333V13.3333H24V29.3333C24 31.5556 24.7778 33.4444 26.3333 35C27.8889 36.5556 29.7778 37.3333 32 37.3333ZM45.3333 28.8C46.9333 28.2222 48.2222 27.2551 49.2 25.8987C50.1778 24.5422 50.6667 23.0204 50.6667 21.3333V18.6667H45.3333V28.8Z" fill="#c5c5c5"/>
</svg>
