<svg width="120" height="120" viewBox="0 0 120 120" fill="none" xmlns="http://www.w3.org/2000/svg">
<path d="M70 75C71.4167 75 72.6467 74.48 73.69 73.44C74.7333 72.4 75.2533 71.17 75.25 69.75C75.2467 68.33 74.7267 67.1017 73.69 66.065C72.6533 65.0283 71.4233 64.5067 70 64.5C68.5767 64.4933 67.3483 65.015 66.315 66.065C65.2817 67.115 64.76 68.3433 64.75 69.75C64.74 71.1567 65.2617 72.3867 66.315 73.44C67.3683 74.4933 68.5967 75.0133 70 75ZM70 59C70.9167 59 71.7717 58.6667 72.565 58C73.3583 57.3333 73.8367 56.4583 74 55.375C74.1667 54.375 74.52 53.4583 75.06 52.625C75.6 51.7917 76.58 50.6667 78 49.25C80.5 46.75 82.1667 44.7283 83 43.185C83.8333 41.6417 84.25 39.83 84.25 37.75C84.25 34 82.9367 30.9367 80.31 28.56C77.6833 26.1833 74.2467 24.9967 70 25C67.25 25 64.75 25.625 62.5 26.875C60.25 28.125 58.4583 29.9167 57.125 32.25C56.625 33.0833 56.5833 33.9583 57 34.875C57.4167 35.7917 58.125 36.4583 59.125 36.875C60.0417 37.2917 60.9383 37.3333 61.815 37C62.6917 36.6667 63.42 36.0833 64 35.25C64.75 34.1667 65.625 33.355 66.625 32.815C67.625 32.275 68.75 32.0033 70 32C72 32 73.625 32.5633 74.875 33.69C76.125 34.8167 76.75 36.3367 76.75 38.25C76.75 39.4167 76.4167 40.5217 75.75 41.565C75.0833 42.6083 73.9167 43.92 72.25 45.5C69.8333 47.5833 68.2917 49.1883 67.625 50.315C66.9583 51.4417 66.5417 53.0867 66.375 55.25C66.2917 56.25 66.605 57.125 67.315 57.875C68.025 58.625 68.92 59 70 59ZM40 90C37.25 90 34.8967 89.0217 32.94 87.065C30.9833 85.1083 30.0033 82.7533 30 80V20C30 17.25 30.98 14.8967 32.94 12.94C34.9 10.9833 37.2533 10.0033 40 10H100C102.75 10 105.105 10.98 107.065 12.94C109.025 14.9 110.003 17.2533 110 20V80C110 82.75 109.022 85.105 107.065 87.065C105.108 89.025 102.753 90.0033 100 90H40ZM40 80H100V20H40V80ZM20 110C17.25 110 14.8967 109.022 12.94 107.065C10.9833 105.108 10.0033 102.753 10 100V35C10 33.5833 10.48 32.3967 11.44 31.44C12.4 30.4833 13.5867 30.0033 15 30C16.4133 29.9967 17.6017 30.4767 18.565 31.44C19.5283 32.4033 20.0067 33.59 20 35V100H85C86.4167 100 87.605 100.48 88.565 101.44C89.525 102.4 90.0033 103.587 90 105C89.9967 106.413 89.5167 107.602 88.56 108.565C87.6033 109.528 86.4167 110.007 85 110H20Z" fill="#2B6CB0"/>
</svg>
