<svg width="38" height="36" viewBox="0 0 38 36" fill="none" xmlns="http://www.w3.org/2000/svg">
<path d="M19 31.5C18.5375 31.5 18.0945 31.419 17.6711 31.257C17.2476 31.095 16.8684 30.851 16.5333 30.525L6.20416 20.4375C5.30486 19.5625 4.64348 18.5625 4.22004 17.4375C3.79659 16.3125 3.58436 15.1375 3.58333 13.9125C3.58333 11.3375 4.44409 9.125 6.16562 7.275C7.88715 5.425 10.0326 4.5 12.6021 4.5C13.8354 4.5 14.9983 4.7375 16.0909 5.2125C17.1834 5.6875 18.1531 6.35 19 7.2C19.8222 6.35 20.7796 5.6875 21.8721 5.2125C22.9646 4.7375 24.1271 4.5 25.3594 4.5C27.9288 4.5 30.081 5.425 31.8159 7.275C33.5508 9.125 34.4177 11.325 34.4167 13.875C34.4167 15.1 34.1983 16.275 33.7615 17.4C33.3246 18.525 32.6694 19.525 31.7958 20.4L21.4281 30.525C21.0941 30.85 20.7215 31.094 20.3104 31.257C19.8993 31.42 19.4625 31.501 19 31.5ZM20.5417 12C20.7986 12 21.0427 12.0625 21.274 12.1875C21.5052 12.3125 21.6851 12.475 21.8135 12.675L24.4344 16.5H30.8323C31.0121 16.075 31.1473 15.644 31.2377 15.207C31.3282 14.77 31.3729 14.326 31.3719 13.875C31.3205 12.15 30.7295 10.6685 29.599 9.4305C28.4684 8.1925 27.0552 7.574 25.3594 7.575C24.5628 7.575 23.7987 7.725 23.0669 8.025C22.3351 8.325 21.6989 8.7625 21.1583 9.3375L20.1177 10.425C19.9892 10.575 19.8222 10.694 19.6167 10.782C19.4111 10.87 19.2056 10.9135 19 10.9125C18.7944 10.9115 18.5889 10.868 18.3833 10.782C18.1778 10.696 17.9979 10.577 17.8437 10.425L16.8031 9.3375C16.2635 8.7625 15.634 8.3125 14.9146 7.9875C14.1951 7.6625 13.4243 7.5 12.6021 7.5C10.9062 7.5 9.49305 8.1315 8.36249 9.3945C7.23194 10.6575 6.66666 12.151 6.66666 13.875C6.66666 14.325 6.7052 14.769 6.78229 15.207C6.85937 15.645 6.98784 16.076 7.1677 16.5H14.375C14.6319 16.5 14.876 16.5625 15.1073 16.6875C15.3385 16.8125 15.5184 16.975 15.6469 17.175L16.9958 19.125L19.0771 13.05C19.1799 12.75 19.3659 12.5 19.6352 12.3C19.9044 12.1 20.2066 12 20.5417 12ZM21.0042 16.875L18.9229 22.95C18.8201 23.25 18.6274 23.5 18.3448 23.7C18.0621 23.9 17.7538 24 17.4198 24C17.1628 24 16.9187 23.9375 16.6875 23.8125C16.4562 23.6875 16.2764 23.525 16.1479 23.325L13.5271 19.5H9.59583L18.7302 28.3875C18.7816 28.4375 18.8268 28.469 18.8659 28.482C18.9049 28.495 18.9496 28.501 19 28.5C19.0504 28.499 19.0956 28.493 19.1357 28.482C19.1757 28.471 19.2205 28.4395 19.2698 28.3875L28.3656 19.5H23.625C23.368 19.5 23.124 19.4375 22.8927 19.3125C22.6615 19.1875 22.4687 19.025 22.3146 18.825L21.0042 16.875Z" fill="url(#paint0_linear_193_291)"/>
<defs>
<linearGradient id="paint0_linear_193_291" x1="19" y1="4.5" x2="19" y2="31.5" gradientUnits="userSpaceOnUse">
<stop offset="0.6" stop-color="#3674B5"/>
<stop offset="1" stop-color="#17314C"/>
</linearGradient>
</defs>
</svg>
