<svg width="37" height="36" viewBox="0 0 37 36" fill="none" xmlns="http://www.w3.org/2000/svg">
<path d="M6.5 30V16.5C5.675 16.5 4.969 16.2065 4.382 15.6195C3.795 15.0325 3.501 14.326 3.5 13.5V10.5C3.5 9.675 3.794 8.969 4.382 8.382C4.97 7.795 5.676 7.501 6.5 7.5H11.3C11.175 7.275 11.094 7.0375 11.057 6.7875C11.02 6.5375 11.001 6.275 11 6C11 4.75 11.4375 3.6875 12.3125 2.8125C13.1875 1.9375 14.25 1.5 15.5 1.5C16.075 1.5 16.6125 1.6065 17.1125 1.8195C17.6125 2.0325 18.075 2.326 18.5 2.7C18.925 2.3 19.3875 2 19.8875 1.8C20.3875 1.6 20.925 1.5 21.5 1.5C22.75 1.5 23.8125 1.9375 24.6875 2.8125C25.5625 3.6875 26 4.75 26 6C26 6.275 25.975 6.5315 25.925 6.7695C25.875 7.0075 25.8 7.251 25.7 7.5H30.5C31.325 7.5 32.0315 7.794 32.6195 8.382C33.2075 8.97 33.501 9.676 33.5 10.5V13.5C33.5 14.325 33.2065 15.0315 32.6195 15.6195C32.0325 16.2075 31.326 16.501 30.5 16.5V30C30.5 30.825 30.2065 31.5315 29.6195 32.1195C29.0325 32.7075 28.326 33.001 27.5 33H9.5C8.675 33 7.969 32.7065 7.382 32.1195C6.795 31.5325 6.501 30.826 6.5 30ZM21.5 4.5C21.075 4.5 20.719 4.644 20.432 4.932C20.145 5.22 20.001 5.576 20 6C19.999 6.424 20.143 6.7805 20.432 7.0695C20.721 7.3585 21.077 7.502 21.5 7.5C21.923 7.498 22.2795 7.354 22.5695 7.068C22.8595 6.782 23.003 6.426 23 6C22.997 5.574 22.853 5.218 22.568 4.932C22.283 4.646 21.927 4.502 21.5 4.5ZM14 6C14 6.425 14.144 6.7815 14.432 7.0695C14.72 7.3575 15.076 7.501 15.5 7.5C15.924 7.499 16.2805 7.355 16.5695 7.068C16.8585 6.781 17.002 6.425 17 6C16.998 5.575 16.854 5.219 16.568 4.932C16.282 4.645 15.926 4.501 15.5 4.5C15.074 4.499 14.718 4.643 14.432 4.932C14.146 5.221 14.002 5.577 14 6ZM6.5 10.5V13.5H17V10.5H6.5ZM17 30V16.5H9.5V30H17ZM20 30H27.5V16.5H20V30ZM30.5 13.5V10.5H20V13.5H30.5Z" fill="url(#paint0_linear_193_278)"/>
<defs>
<linearGradient id="paint0_linear_193_278" x1="18.5" y1="1.5" x2="18.5" y2="33" gradientUnits="userSpaceOnUse">
<stop offset="0.6" stop-color="#3674B5"/>
<stop offset="1" stop-color="#17314C"/>
</linearGradient>
</defs>
</svg>
