<svg width="37" height="36" viewBox="0 0 37 36" fill="none" xmlns="http://www.w3.org/2000/svg">
<path d="M9.5 28.5H14V21C14 20.575 14.144 20.219 14.432 19.932C14.72 19.645 15.076 19.501 15.5 19.5H21.5C21.925 19.5 22.2815 19.644 22.5695 19.932C22.8575 20.22 23.001 20.576 23 21V28.5H27.5V15L18.5 8.25L9.5 15V28.5ZM6.5 28.5V15C6.5 14.525 6.6065 14.075 6.8195 13.65C7.0325 13.225 7.326 12.875 7.7 12.6L16.7 5.85C17.225 5.45 17.825 5.25 18.5 5.25C19.175 5.25 19.775 5.45 20.3 5.85L29.3 12.6C29.675 12.875 29.969 13.225 30.182 13.65C30.395 14.075 30.501 14.525 30.5 15V28.5C30.5 29.325 30.206 30.0315 29.618 30.6195C29.03 31.2075 28.324 31.501 27.5 31.5H21.5C21.075 31.5 20.719 31.356 20.432 31.068C20.145 30.78 20.001 30.424 20 30V22.5H17V30C17 30.425 16.856 30.7815 16.568 31.0695C16.28 31.3575 15.924 31.501 15.5 31.5H9.5C8.675 31.5 7.969 31.2065 7.382 30.6195C6.795 30.0325 6.501 29.326 6.5 28.5Z" fill="url(#paint0_linear_193_284)"/>
<defs>
<linearGradient id="paint0_linear_193_284" x1="18.5" y1="5.25" x2="18.5" y2="31.5" gradientUnits="userSpaceOnUse">
<stop offset="0.6" stop-color="#3674B5"/>
<stop offset="1" stop-color="#17314C"/>
</linearGradient>
</defs>
</svg>
