<svg width="37" height="36" viewBox="0 0 37 36" fill="none" xmlns="http://www.w3.org/2000/svg">
<path d="M13.1 31.5C10.825 31.5 8.906 30.719 7.343 29.157C5.78 27.595 4.999 25.676 5 23.4C5 22.45 5.1625 21.525 5.4875 20.625C5.8125 19.725 6.275 18.9125 6.875 18.1875L12.2 11.775L9.65 6.675C9.4 6.175 9.419 5.6875 9.707 5.2125C9.995 4.7375 10.426 4.5 11 4.5H26C26.575 4.5 27.0065 4.7375 27.2945 5.2125C27.5825 5.6875 27.601 6.175 27.35 6.675L24.8 11.775L30.125 18.1875C30.725 18.9125 31.1875 19.725 31.5125 20.625C31.8375 21.525 32 22.45 32 23.4C32 25.675 31.2125 27.594 29.6375 29.157C28.0625 30.72 26.15 31.501 23.9 31.5H13.1ZM18.5 24C17.675 24 16.969 23.7065 16.382 23.1195C15.795 22.5325 15.501 21.826 15.5 21C15.499 20.174 15.793 19.468 16.382 18.882C16.971 18.296 17.677 18.002 18.5 18C19.323 17.998 20.0295 18.292 20.6195 18.882C21.2095 19.472 21.503 20.178 21.5 21C21.497 21.822 21.2035 22.5285 20.6195 23.1195C20.0355 23.7105 19.329 24.004 18.5 24ZM14.9375 10.5H22.0625L23.5625 7.5H13.4375L14.9375 10.5ZM13.1 28.5H23.9C25.325 28.5 26.5315 28.0065 27.5195 27.0195C28.5075 26.0325 29.001 24.826 29 23.4C29 22.8 28.8935 22.219 28.6805 21.657C28.4675 21.095 28.174 20.5885 27.8 20.1375L22.2875 13.5H14.75L9.2 20.1C8.825 20.55 8.5315 21.0625 8.3195 21.6375C8.1075 22.2125 8.001 22.8 8 23.4C8 24.825 8.494 26.0315 9.482 27.0195C10.47 28.0075 11.676 28.501 13.1 28.5Z" fill="url(#paint0_linear_193_272)"/>
<defs>
<linearGradient id="paint0_linear_193_272" x1="18.5" y1="4.5" x2="18.5" y2="31.5" gradientUnits="userSpaceOnUse">
<stop offset="0.6" stop-color="#FFBC00"/>
<stop offset="1" stop-color="#6B4F00"/>
</linearGradient>
</defs>
</svg>
