<svg width="37" height="36" viewBox="0 0 37 36" fill="none" xmlns="http://www.w3.org/2000/svg">
<path d="M18.5 18C16.85 18 15.4375 17.4125 14.2625 16.2375C13.0875 15.0625 12.5 13.65 12.5 12C12.5 10.35 13.0875 8.9375 14.2625 7.7625C15.4375 6.5875 16.85 6 18.5 6C20.15 6 21.5625 6.5875 22.7375 7.7625C23.9125 8.9375 24.5 10.35 24.5 12C24.5 13.65 23.9125 15.0625 22.7375 16.2375C21.5625 17.4125 20.15 18 18.5 18ZM6.5 27V25.8C6.5 24.95 6.719 24.169 7.157 23.457C7.595 22.745 8.176 22.201 8.9 21.825C10.45 21.05 12.025 20.469 13.625 20.082C15.225 19.695 16.85 19.501 18.5 19.5C20.15 19.499 21.775 19.693 23.375 20.082C24.975 20.471 26.55 21.052 28.1 21.825C28.825 22.2 29.4065 22.744 29.8445 23.457C30.2825 24.17 30.501 24.951 30.5 25.8V27C30.5 27.825 30.2065 28.5315 29.6195 29.1195C29.0325 29.7075 28.326 30.001 27.5 30H9.5C8.675 30 7.969 29.7065 7.382 29.1195C6.795 28.5325 6.501 27.826 6.5 27ZM9.5 27H27.5V25.8C27.5 25.525 27.4315 25.275 27.2945 25.05C27.1575 24.825 26.976 24.65 26.75 24.525C25.4 23.85 24.0375 23.344 22.6625 23.007C21.2875 22.67 19.9 22.501 18.5 22.5C17.1 22.499 15.7125 22.668 14.3375 23.007C12.9625 23.346 11.6 23.852 10.25 24.525C10.025 24.65 9.8435 24.825 9.7055 25.05C9.5675 25.275 9.499 25.525 9.5 25.8V27ZM18.5 15C19.325 15 20.0315 14.7065 20.6195 14.1195C21.2075 13.5325 21.501 12.826 21.5 12C21.499 11.174 21.2055 10.468 20.6195 9.882C20.0335 9.296 19.327 9.002 18.5 9C17.673 8.998 16.967 9.292 16.382 9.882C15.797 10.472 15.503 11.178 15.5 12C15.497 12.822 15.791 13.5285 16.382 14.1195C16.973 14.7105 17.679 15.004 18.5 15Z" fill="url(#paint0_linear_193_296)"/>
<defs>
<linearGradient id="paint0_linear_193_296" x1="18.5" y1="6" x2="18.5" y2="30" gradientUnits="userSpaceOnUse">
<stop offset="0.6" stop-color="#FFBC00"/>
<stop offset="1" stop-color="#6B4F00"/>
</linearGradient>
</defs>
</svg>
