<svg width="180" height="180" viewBox="0 0 180 180" fill="none" xmlns="http://www.w3.org/2000/svg">
<path d="M0 0H180V180H0V0Z" fill="white"/>
<path d="M14.9067 120.54C12.2 120.54 10 118.347 10 115.633C10 112.92 12.1933 110.727 14.9067 110.727H165.1C167.807 110.727 170.007 112.92 170.007 115.633C170.007 118.347 167.813 120.54 165.1 120.54H14.9067Z" fill="#537EEA"/>
<path d="M69.9733 170C69.2867 170 68.5933 169.853 67.9267 169.553C65.4667 168.42 64.3867 165.507 65.52 163.047L95.5533 97.74C96.6867 95.28 99.6 94.2 102.06 95.3333C104.52 96.4667 105.6 99.38 104.467 101.84L74.4333 167.147C73.6067 168.947 71.8333 170 69.9733 170Z" fill="#537EEA"/>
<path d="M112.447 33.7467H69.76C67.0533 33.7467 64.8533 31.5533 64.8533 28.84C64.8533 26.1267 67.0467 23.9333 69.76 23.9333H86.3L95.2467 12.1733C96.8867 10.02 99.9667 9.6 102.12 11.24C104.273 12.88 104.693 15.96 103.053 18.1133L98.6267 23.9333H112.447C115.153 23.9333 117.353 26.1267 117.353 28.84C117.353 31.5533 115.16 33.7467 112.447 33.7467Z" fill="#F8B500"/>
<path d="M81.88 100.387C80.44 100.387 79.0133 99.7533 78.0467 98.5467C76.3533 96.4333 76.7 93.3467 78.8133 91.6533L88.44 83.9533H69.7533C67.0467 83.9533 64.8467 81.76 64.8467 79.0467C64.8467 76.3333 67.04 74.14 69.7533 74.14H112.44C115.147 74.14 117.347 76.3333 117.347 79.0467C117.347 81.76 115.153 83.9533 112.44 83.9533H104.147L84.94 99.3133C84.0333 100.033 82.9533 100.387 81.88 100.387Z" fill="#F8B500"/>
<path d="M91.1 70.26C80.1133 70.26 71.1733 62.2267 71.1733 52.3467C71.1733 42.4667 80.1133 34.4333 91.1 34.4333C102.087 34.4333 111.027 42.4667 111.027 52.3467C111.027 62.2267 102.087 70.26 91.1 70.26ZM91.1 44.2467C85.52 44.2467 80.9867 47.88 80.9867 52.3533C80.9867 56.8267 85.5267 60.46 91.1 60.46C96.6733 60.46 101.213 56.8267 101.213 52.3533C101.213 47.88 96.6733 44.2467 91.1 44.2467Z" fill="#F8B500"/>
<path d="M60.2267 100.387C44.3933 100.387 32.8067 99.4667 24.8 97.5667C21.56 96.8 11.7 94.46 10.28 86.9067C8.86 79.3667 16.3467 71.7267 34.5467 62.14C36.76 60.9733 38.98 59.86 41.12 58.8267C29.1533 56.5467 22.5933 52.22 20.8333 45.62C18.9867 38.68 23.22 30.5867 33.4333 21.56C40.2267 15.5533 47.32 11.16 47.62 10.9733C49.9267 9.55333 52.9467 10.2667 54.3667 12.5733C55.7867 14.88 55.0733 17.9 52.7667 19.32C40.8267 26.7 28.9533 38.0133 30.3067 43.0933C30.6133 44.24 33.5067 50.02 60.3733 50.8667C62.7 50.94 64.6533 52.64 65.0533 54.94C65.4467 57.2333 64.1733 59.4933 62.0067 60.34C61.9 60.38 51.0067 64.6533 40.1867 70.26C22.3067 79.5267 20.1867 84.26 19.9467 85.0733C20.62 85.8933 25.96 90.58 60.22 90.58C62.9267 90.58 65.1267 92.7733 65.1267 95.4867C65.1267 98.2 62.9333 100.393 60.22 100.393L60.2267 100.387Z" fill="#537EEA"/>
<path d="M165.093 100.387C136.58 100.387 122.813 96.1467 120.467 86.6333C118.787 79.8333 123.68 72.3133 135.427 63.6533C143.047 58.0333 150.887 53.8867 151.22 53.7133C153.62 52.4533 156.58 53.3733 157.847 55.7733C159.107 58.1733 158.187 61.1333 155.787 62.4C155.653 62.4733 148.167 66.4333 141.173 71.6067C129.207 80.4467 129.987 84.2467 129.993 84.2867C130.007 84.3467 131.933 90.5867 165.1 90.5867C167.807 90.5867 170.007 92.78 170.007 95.4933C170.007 98.2067 167.813 100.4 165.1 100.4L165.093 100.387Z" fill="#537EEA"/>
<path d="M165.093 62.96C148.193 62.96 135.4 61.38 127.893 53.6867C123.147 48.82 120.953 41.8467 121.193 32.3667C121.333 26.6733 123.613 21.7267 127.787 18.0533C132.727 13.7 140.247 11.08 150.133 10.26C157.147 9.68 162.827 10.24 163.067 10.2667C165.76 10.54 167.727 12.9467 167.453 15.64C167.18 18.3333 164.773 20.3 162.08 20.0267C156.653 19.4867 141.08 19.4 134.26 25.42C132.113 27.32 131.073 29.6 131 32.6133C130.827 39.4 132.073 43.92 134.92 46.84C139.233 51.26 148.26 53.1467 165.093 53.1467C167.8 53.1467 170 55.34 170 58.0533C170 60.7667 167.807 62.96 165.093 62.96Z" fill="#537EEA"/>
<path d="M162.64 170C162.453 170 162.26 169.987 162.067 169.967C146.347 168.14 129.2 158.887 111.1 142.453C102.387 134.547 95.6467 126.92 91.9533 122.5C86.72 126.607 76.7467 134.28 65.8333 141.88C32.6467 164.98 23.06 164.98 19.9067 164.98C17.2 164.98 15 162.787 15 160.073C15 157.36 17.1933 155.167 19.9067 155.167C31.6867 155.167 68.9267 128.58 89.6267 111.82L93.5533 108.64L96.6133 112.66C96.9467 113.093 130.307 156.4 163.193 160.22C165.887 160.533 167.813 162.967 167.5 165.66C167.213 168.16 165.087 170 162.633 170H162.64Z" fill="#537EEA"/>
</svg>
