<?xml version="1.0" encoding="UTF-8"?>
<svg id="_레이어_2" data-name="레이어 2" xmlns="http://www.w3.org/2000/svg" viewBox="0 0 240 240">
  <defs>
    <style>
      .cls-1 {
        fill: #f8b500;
      }

      .cls-2 {
        fill: #537eea;
      }
    </style>
  </defs>
  <g id="_레이어_1-2" data-name="레이어 1">
    <g>
      <path class="cls-2" d="M232.64,165.81H7.36c-4.06,0-7.36-3.29-7.36-7.36s3.29-7.36,7.36-7.36h225.29c4.06,0,7.36,3.29,7.36,7.36s-3.29,7.36-7.36,7.36Z"/>
      <path class="cls-2" d="M89.96,240c-1.03,0-2.07-.22-3.07-.67-3.69-1.7-5.31-6.07-3.61-9.76l45.05-97.96c1.7-3.69,6.07-5.31,9.76-3.61,3.69,1.7,5.31,6.07,3.61,9.76l-45.05,97.96c-1.24,2.7-3.9,4.28-6.69,4.28Z"/>
      <g>
        <path class="cls-1" d="M153.67,35.62h-64.03c-4.06,0-7.36-3.29-7.36-7.36s3.29-7.36,7.36-7.36h24.81l13.42-17.64c2.46-3.23,7.08-3.86,10.31-1.4,3.23,2.46,3.86,7.08,1.4,10.31l-6.64,8.73h20.73c4.06,0,7.36,3.29,7.36,7.36s-3.29,7.36-7.36,7.36Z"/>
        <path class="cls-1" d="M107.82,135.58c-2.16,0-4.3-.95-5.75-2.76-2.54-3.17-2.02-7.8,1.15-10.34l14.44-11.55h-28.03c-4.06,0-7.36-3.29-7.36-7.36s3.29-7.36,7.36-7.36h64.03c4.06,0,7.36,3.29,7.36,7.36s-3.29,7.36-7.36,7.36h-12.44l-28.81,23.04c-1.36,1.08-2.98,1.61-4.59,1.61Z"/>
        <path class="cls-1" d="M121.65,90.39c-16.48,0-29.89-12.05-29.89-26.87s13.41-26.87,29.89-26.87,29.89,12.05,29.89,26.87-13.41,26.87-29.89,26.87ZM121.65,51.37c-8.37,0-15.17,5.45-15.17,12.16s6.81,12.16,15.17,12.16,15.17-5.45,15.17-12.16-6.81-12.16-15.17-12.16Z"/>
      </g>
      <path class="cls-2" d="M75.34,135.58c-23.75,0-41.13-1.38-53.14-4.23-4.86-1.15-19.65-4.66-21.78-15.99-2.13-11.31,9.1-22.77,36.4-37.15,3.32-1.75,6.65-3.42,9.86-4.97-17.95-3.42-27.79-9.91-30.43-19.81-2.77-10.41,3.58-22.55,18.9-36.09C45.34,8.33,55.98,1.74,56.43,1.46c3.46-2.13,7.99-1.06,10.12,2.4,2.13,3.46,1.06,7.99-2.4,10.12-17.91,11.07-35.72,28.04-33.69,35.66.46,1.72,4.8,10.39,45.1,11.66,3.49.11,6.42,2.66,7.02,6.11.59,3.44-1.32,6.83-4.57,8.1-.16.06-16.5,6.47-32.73,14.88-26.82,13.9-30,21-30.36,22.22,1.01,1.23,9.02,8.26,60.41,8.26,4.06,0,7.36,3.29,7.36,7.36s-3.29,7.36-7.36,7.36Z"/>
      <path class="cls-2" d="M232.64,135.58c-42.77,0-63.42-6.36-66.94-20.63-2.52-10.2,4.82-21.48,22.44-34.47,11.43-8.43,23.19-14.65,23.69-14.91,3.6-1.89,8.04-.51,9.94,3.09,1.89,3.6.51,8.04-3.09,9.94-.2.11-11.43,6.05-21.92,13.81-17.95,13.26-16.78,18.96-16.77,19.02.02.09,2.91,9.45,52.66,9.45,4.06,0,7.36,3.29,7.36,7.36s-3.29,7.36-7.36,7.36Z"/>
      <path class="cls-2" d="M232.64,79.44c-25.35,0-44.54-2.37-55.8-13.91-7.12-7.3-10.41-17.76-10.05-31.98.21-8.54,3.63-15.96,9.89-21.47,7.41-6.53,18.69-10.46,33.52-11.69,10.52-.87,19.04-.03,19.4.01,4.04.41,6.99,4.02,6.58,8.06-.41,4.04-4.02,6.99-8.06,6.58h0c-8.14-.81-31.5-.94-41.73,8.09-3.22,2.85-4.78,6.27-4.89,10.79-.26,10.18,1.61,16.96,5.88,21.34,6.47,6.63,20.01,9.46,45.26,9.46,4.06,0,7.36,3.29,7.36,7.36s-3.29,7.36-7.36,7.36Z"/>
      <path class="cls-2" d="M228.96,240c-.28,0-.57-.02-.86-.05-23.58-2.74-49.3-16.62-76.45-41.27-13.07-11.86-23.18-23.3-28.72-29.93-7.85,6.16-22.81,17.67-39.18,29.07-49.78,34.65-64.16,34.65-68.89,34.65-4.06,0-7.36-3.29-7.36-7.36s3.29-7.36,7.36-7.36c17.67,0,73.53-39.88,104.58-65.02l5.89-4.77,4.59,6.03c.5.65,50.54,65.61,99.87,71.34,4.04.47,6.93,4.12,6.46,8.16-.43,3.75-3.62,6.51-7.3,6.51Z"/>
    </g>
  </g>
</svg>