<?xml version="1.0" encoding="UTF-8"?>
<svg id="_레이어_2" data-name="레이어 2" xmlns="http://www.w3.org/2000/svg" viewBox="0 0 1200 266.13">
  <defs>
    <style>
      .cls-1 {
        fill: #f8b500;
      }

      .cls-2 {
        fill: #537eea;
      }
    </style>
  </defs>
  <g id="_레이어_1-2" data-name="레이어 1">
    <g>
      <g>
        <path class="cls-2" d="M443.75,156.1c-12.37,2.89-24.7,4.79-36.99,5.69v47.7h93.5v29.81h-220.06v-29.81h94.04v-47.43c-14.46-1.26-26.97-4.38-37.54-9.35-10.58-4.97-18.29-11.88-23.17-20.73-8.14-14.82-12.2-36.32-12.2-64.5,0-11.38.63-25.74,1.9-43.09l32.52,2.17c-1.27,17.71-1.9,31.71-1.9,42.01,0,23.31,2.61,39.57,7.86,48.78,2.88,5.06,8.54,8.9,16.94,11.52,8.39,2.62,18.56,3.93,30.48,3.93,14.09,0,29.18-1.8,45.27-5.42,16.08-3.61,30.89-8.67,44.44-15.18v32.8c-11.03,4.52-22.73,8.22-35.1,11.11Z"/>
        <path class="cls-2" d="M733.33,198.65h-93.78v65.32h-32.52v-65.32h-93.77v-29.81h220.06v29.81ZM641.45,27.37h72.64v29.81h-25.48c5.97,9.4,8.95,20.24,8.95,32.52,0,11.2-2.58,21.45-7.73,30.76-5.15,9.31-13.06,16.76-23.71,22.36-10.66,5.6-23.94,8.4-39.84,8.4s-29.18-2.8-39.84-8.4c-10.66-5.6-18.56-13.05-23.71-22.36s-7.72-19.56-7.72-30.76c0-12.28,2.98-23.12,8.94-32.52h-25.48v-29.81h70.2c-.73-6.68-1.09-15.81-1.09-27.37h32.52c0,12.47.45,21.59,1.36,27.37ZM665.03,89.7c0-9.94-3.02-17.52-9.08-22.77-6.05-5.24-15.95-7.86-29.67-7.86s-23.62,2.62-29.67,7.86c-6.05,5.24-9.08,12.83-9.08,22.77,0,21.14,12.91,31.71,38.75,31.71s38.75-10.57,38.75-31.71Z"/>
        <path class="cls-1" d="M914.17,147.17c-11.54,5.39-23.42,9.79-35.62,13.19l9.02,44.35,91.62-18.64,5.94,29.21-215.64,43.87-5.94-29.21,92.15-18.75-9.02-44.35c-13.53,1.46-25.58.92-36.15-1.64-10.57-2.55-18.87-7.36-24.92-14.43-9.46-11.16-15.88-25.07-19.27-41.71-1.66-8.14-2.95-19.04-3.88-32.67l-11.95,2.43-5.94-29.21,176.33-35.88,5.94,29.21-131.98,26.85c.61,13.89,1.82,25.26,3.62,34.11,2.31,11.33,6.25,20.3,11.83,26.91,3.34,3.74,9.04,5.95,17.11,6.61,8.06.67,17.49-.1,28.3-2.3,15.23-3.1,30.5-8.23,45.82-15.4,15.32-7.17,27.35-15.06,36.11-23.66l6.86,33.73c-8.7,6.2-18.81,11.99-30.34,17.37Z"/>
        <path class="cls-1" d="M979.66,75.34h79.68c7.59,0,13.05-.77,16.4-2.3,3.34-1.53,5.01-3.57,5.01-6.1,0-1.44-.5-2.85-1.49-4.2s-2.3-2.48-3.93-3.39c-6.69-4.34-16.27-6.51-28.73-6.51-15,0-32.08,3.16-51.22,9.48l-10.3-28.18c22.58-7.41,43.27-11.12,62.06-11.12s33.96,3.62,45.53,10.85c6.5,3.98,11.51,8.99,15.04,15.04,3.52,6.06,5.28,12.33,5.28,18.84s-1.94,12.83-5.83,18.43c-3.88,5.6-9.85,10.16-17.89,13.68-8.04,3.52-18.02,5.29-29.94,5.29h-36.05c-3.25,2.89-4.87,5.78-4.87,8.67,0,3.25,2.16,6.06,6.51,8.4,5.59,2.89,13.28,4.34,23.04,4.34,17.89,0,42.54-4.43,73.98-13.28v30.89c-30.72,8.13-55.47,12.2-74.26,12.2-16.27,0-29.09-2.71-38.49-8.13-15.54-8.67-23.3-19.69-23.3-33.07,0-3.43.54-6.78,1.62-10.02h-7.86v-29.81ZM1142.55,266.13v-44.72c0-15-15.64-22.5-46.89-22.5-21.87,0-51.13,3.52-87.81,10.57l-5.95-29.27c37.57-7.05,68.02-10.57,91.33-10.57,54.56,0,81.85,17.25,81.85,51.76v44.72h-32.52ZM1173.98,19.51v55.83h26.02v32.52h-26.02v53.12h-32.52V19.51h32.52Z"/>
      </g>
      <g>
        <path class="cls-2" d="M217.74,175.94H6.89c-3.8,0-6.89-3.08-6.89-6.89s3.08-6.89,6.89-6.89h210.85c3.8,0,6.89,3.08,6.89,6.89s-3.08,6.89-6.89,6.89Z"/>
        <path class="cls-2" d="M84.19,245.38c-.96,0-1.94-.2-2.87-.63-3.46-1.59-4.97-5.68-3.38-9.13l42.16-91.68c1.59-3.45,5.68-4.97,9.13-3.38,3.46,1.59,4.97,5.68,3.38,9.13l-42.16,91.68c-1.16,2.52-3.65,4.01-6.26,4.01Z"/>
        <g>
          <path class="cls-1" d="M143.82,54.09h-59.93c-3.8,0-6.89-3.08-6.89-6.89s3.08-6.89,6.89-6.89h23.22l12.56-16.51c2.3-3.03,6.62-3.61,9.65-1.31,3.03,2.3,3.61,6.62,1.31,9.65l-6.22,8.17h19.4c3.8,0,6.89,3.08,6.89,6.89s-3.08,6.89-6.89,6.89Z"/>
          <path class="cls-1" d="M100.91,147.65c-2.02,0-4.02-.89-5.38-2.59-2.37-2.97-1.89-7.3,1.08-9.68l13.52-10.81h-26.23c-3.8,0-6.89-3.08-6.89-6.89s3.08-6.89,6.89-6.89h59.93c3.8,0,6.89,3.08,6.89,6.89s-3.08,6.89-6.89,6.89h-11.64l-26.97,21.56c-1.27,1.02-2.79,1.51-4.3,1.51Z"/>
          <path class="cls-1" d="M113.86,105.36c-15.42,0-27.97-11.28-27.97-25.15s12.55-25.15,27.97-25.15,27.97,11.28,27.97,25.15-12.55,25.15-27.97,25.15ZM113.86,68.83c-7.83,0-14.2,5.1-14.2,11.38s6.37,11.38,14.2,11.38,14.2-5.1,14.2-11.38-6.37-11.38-14.2-11.38Z"/>
        </g>
        <path class="cls-2" d="M70.51,147.65c-22.23,0-38.5-1.3-49.74-3.96-4.55-1.08-18.39-4.36-20.38-14.96-1.99-10.58,8.51-21.31,34.07-34.77,3.11-1.64,6.22-3.2,9.23-4.65-16.8-3.2-26.01-9.27-28.48-18.54-2.6-9.74,3.35-21.11,17.69-33.78,9.54-8.43,19.5-14.61,19.92-14.87,3.24-2,7.48-.99,9.47,2.25,2,3.24.99,7.48-2.25,9.47-16.77,10.36-33.44,26.24-31.53,33.38.43,1.61,4.49,9.72,42.21,10.91,3.27.1,6.01,2.49,6.57,5.71.55,3.22-1.23,6.39-4.28,7.58-.15.06-15.44,6.05-30.63,13.93-25.1,13.01-28.08,19.66-28.41,20.8.95,1.16,8.44,7.73,56.53,7.73,3.8,0,6.89,3.08,6.89,6.89s-3.08,6.89-6.89,6.89Z"/>
        <path class="cls-2" d="M217.74,147.65c-40.03,0-59.35-5.96-62.65-19.31-2.36-9.55,4.51-20.1,21-32.27,10.7-7.89,21.71-13.71,22.17-13.95,3.36-1.77,7.53-.48,9.3,2.89,1.77,3.37.48,7.53-2.89,9.3-.19.1-10.69,5.67-20.52,12.93-16.8,12.41-15.71,17.75-15.69,17.8.02.09,2.73,8.84,49.28,8.84,3.8,0,6.89,3.08,6.89,6.89s-3.08,6.89-6.89,6.89Z"/>
        <path class="cls-2" d="M217.74,95.1c-23.73,0-41.69-2.21-52.22-13.01-6.66-6.83-9.74-16.62-9.41-29.93.2-7.99,3.4-14.94,9.25-20.1,6.94-6.11,17.49-9.79,31.37-10.94,9.84-.81,17.82-.02,18.16,0,3.78.38,6.54,3.76,6.15,7.55-.38,3.78-3.76,6.54-7.54,6.15h0c-7.62-.76-29.48-.88-39.05,7.57-3.02,2.66-4.47,5.87-4.58,10.1-.24,9.53,1.51,15.88,5.5,19.97,6.06,6.21,18.72,8.86,42.36,8.86,3.8,0,6.89,3.08,6.89,6.89s-3.08,6.89-6.89,6.89Z"/>
        <path class="cls-2" d="M214.29,245.37c-.27,0-.53-.02-.8-.05-22.07-2.56-46.14-15.56-71.55-38.62-12.23-11.1-21.7-21.8-26.88-28.01-7.35,5.77-21.34,16.54-36.67,27.21-46.59,32.43-60.05,32.43-64.47,32.43-3.8,0-6.89-3.08-6.89-6.89s3.08-6.89,6.89-6.89c16.54,0,68.82-37.33,97.88-60.85l5.51-4.46,4.3,5.64c.47.61,47.3,61.41,93.47,66.77,3.78.44,6.48,3.86,6.05,7.63-.41,3.51-3.38,6.09-6.83,6.09Z"/>
      </g>
    </g>
  </g>
</svg>