<?xml version="1.0" encoding="UTF-8"?>
<svg id="_레이어_2" data-name="레이어 2" xmlns="http://www.w3.org/2000/svg" viewBox="0 0 1000 289.34">
  <defs>
    <style>
      .cls-1 {
        fill: #f8b500;
      }

      .cls-2 {
        fill: #537eea;
      }
    </style>
  </defs>
  <g id="_레이어_1-2" data-name="레이어 1">
    <g>
      <path class="cls-2" d="M177.81,169.71c-13.45,3.15-26.86,5.21-40.21,6.19v51.86h101.65v32.41H0v-32.41h102.24v-51.56c-15.72-1.37-29.33-4.76-40.81-10.16-11.5-5.4-19.89-12.92-25.19-22.54-8.85-16.11-13.26-39.49-13.26-70.13,0-12.37.68-27.99,2.06-46.85l35.36,2.36c-1.38,19.25-2.06,34.47-2.06,45.67,0,25.34,2.84,43.02,8.55,53.03,3.13,5.5,9.28,9.68,18.42,12.52,9.12,2.85,20.18,4.27,33.14,4.27,15.32,0,31.72-1.96,49.21-5.89,17.48-3.93,33.58-9.43,48.32-16.5v35.66c-11.99,4.91-24.71,8.94-38.16,12.08Z"/>
      <path class="cls-2" d="M492.64,215.97h-101.95v71.01h-35.36v-71.01h-101.94v-32.41h239.25v32.41ZM392.75,29.76h78.97v32.41h-27.71c6.49,10.21,9.74,22,9.74,35.36,0,12.18-2.81,23.32-8.4,33.44-5.6,10.12-14.19,18.22-25.78,24.31-11.59,6.09-26.03,9.13-43.32,9.13s-31.72-3.04-43.32-9.13c-11.59-6.09-20.18-14.19-25.78-24.31s-8.39-21.26-8.39-33.44c0-13.36,3.24-25.14,9.72-35.36h-27.71V29.76h76.32c-.79-7.27-1.19-17.19-1.19-29.76h35.36c0,13.55.49,23.47,1.47,29.76ZM418.38,97.52c0-10.8-3.28-19.05-9.87-24.75-6.58-5.69-17.34-8.54-32.26-8.54s-25.68,2.85-32.26,8.54c-6.58,5.7-9.87,13.95-9.87,24.75,0,22.98,14.04,34.47,42.13,34.47s42.13-11.49,42.13-34.47Z"/>
      <path class="cls-1" d="M689.25,160c-12.55,5.86-25.46,10.64-38.73,14.35l9.81,48.21,99.61-20.27,6.46,31.76-234.45,47.7-6.46-31.76,100.19-20.38-9.81-48.21c-14.71,1.59-27.81,1-39.3-1.78-11.49-2.77-20.52-8-27.1-15.68-10.29-12.14-17.27-27.26-20.95-45.35-1.8-8.85-3.21-20.7-4.22-35.52l-12.99,2.64-6.46-31.76,191.71-39,6.46,31.76-143.49,29.19c.66,15.1,1.98,27.46,3.94,37.08,2.51,12.32,6.79,22.07,12.86,29.25,3.63,4.07,9.83,6.47,18.6,7.19,8.76.73,19.01-.11,30.76-2.5,16.55-3.37,33.16-8.95,49.81-16.75,16.66-7.79,29.74-16.37,39.26-25.73l7.46,36.67c-9.46,6.74-20.45,13.03-32.98,18.89Z"/>
      <path class="cls-1" d="M760.45,81.91h86.63c8.25,0,14.18-.83,17.83-2.51,3.63-1.67,5.44-3.88,5.44-6.63,0-1.57-.54-3.09-1.62-4.57s-2.51-2.7-4.27-3.68c-7.28-4.72-17.68-7.07-31.23-7.07-16.3,0-34.88,3.44-55.69,10.31l-11.2-30.64c24.55-8.06,47.04-12.08,67.47-12.08s36.93,3.93,49.5,11.79c7.06,4.32,12.52,9.77,16.35,16.35,3.82,6.59,5.74,13.41,5.74,20.48s-2.11,13.95-6.34,20.03c-4.22,6.09-10.71,11.05-19.45,14.88-8.74,3.83-19.59,5.75-32.55,5.75h-39.19c-3.54,3.14-5.3,6.29-5.3,9.42,0,3.54,2.35,6.59,7.07,9.14,6.08,3.15,14.43,4.72,25.04,4.72,19.45,0,46.25-4.81,80.43-14.44v33.59c-33.4,8.84-60.3,13.26-80.73,13.26-17.68,0-31.63-2.94-41.84-8.84-16.89-9.43-25.33-21.41-25.33-35.95,0-3.73.59-7.37,1.76-10.9h-8.55v-32.41ZM937.54,289.34v-48.62c0-16.3-17-24.46-50.98-24.46-23.77,0-55.59,3.83-95.47,11.49l-6.47-31.82c40.85-7.66,73.95-11.49,99.29-11.49,59.32,0,88.98,18.76,88.98,56.28v48.62h-35.36ZM971.71,21.21v60.7h28.29v35.36h-28.29v57.75h-35.36V21.21h35.36Z"/>
    </g>
  </g>
</svg>